<svg width="56" height="56" viewBox="0 0 56 56" fill="none" xmlns="http://www.w3.org/2000/svg">
<path d="M0 12C0 5.37258 5.37258 0 12 0H44C50.6274 0 56 5.37258 56 12V44C56 50.6274 50.6274 56 44 56H12C5.37258 56 0 50.6274 0 44V12Z" fill="#0DB760"/>
<path d="M16.625 21.875C16.625 31.5397 24.4603 39.375 34.125 39.375H36.75C37.4462 39.375 38.1139 39.0984 38.6062 38.6062C39.0984 38.1139 39.375 37.4462 39.375 36.75V35.1493C39.375 34.5473 38.9655 34.0223 38.381 33.8765L33.2208 32.5862C32.7075 32.4578 32.1685 32.6503 31.8523 33.0727L30.7207 34.5812C30.3917 35.0198 29.8235 35.2135 29.309 35.0245C27.399 34.3223 25.6645 33.2134 24.2256 31.7744C22.7866 30.3355 21.6777 28.601 20.9755 26.691C20.7865 26.1765 20.9802 25.6083 21.4188 25.2793L22.9273 24.1477C23.3508 23.8315 23.5422 23.2913 23.4138 22.7792L22.1235 17.619C22.0525 17.3351 21.8887 17.0832 21.6581 16.9031C21.4274 16.723 21.1433 16.6251 20.8507 16.625H19.25C18.5538 16.625 17.8861 16.9016 17.3938 17.3938C16.9016 17.8861 16.625 18.5538 16.625 19.25V21.875Z" stroke="white" stroke-width="1.5" stroke-linecap="round" stroke-linejoin="round"/>
</svg>
