<svg width="54" height="54" viewBox="0 0 54 54" fill="none" xmlns="http://www.w3.org/2000/svg">
<path d="M5.0625 15.1875C5.0625 33.8265 20.1735 48.9375 38.8125 48.9375H43.875C45.2177 48.9375 46.5053 48.4041 47.4547 47.4547C48.4041 46.5053 48.9375 45.2177 48.9375 43.875V40.788C48.9375 39.627 48.1478 38.6145 47.0205 38.3333L37.0688 35.8447C36.0788 35.5972 35.0393 35.9685 34.4295 36.783L32.247 39.6923C31.6125 40.5383 30.5167 40.9117 29.5245 40.5472C25.841 39.193 22.4958 37.0543 19.7208 34.2792C16.9457 31.5042 14.807 28.159 13.4528 24.4755C13.0883 23.4833 13.4618 22.3875 14.3078 21.753L17.217 19.5705C18.0337 18.9607 18.4028 17.919 18.1553 16.9313L15.6667 6.9795C15.5298 6.43206 15.2139 5.94608 14.7691 5.59876C14.3244 5.25143 13.7763 5.06269 13.212 5.0625H10.125C8.78234 5.0625 7.49467 5.59587 6.54527 6.54527C5.59587 7.49467 5.0625 8.78234 5.0625 10.125V15.1875Z" stroke="black" stroke-width="3.5" stroke-linecap="round" stroke-linejoin="round"/>
</svg>
