<svg width="1534" height="2169" viewBox="0 0 1534 2169" fill="none" xmlns="http://www.w3.org/2000/svg">
<rect x="32.376" y="611.545" width="5.92658" height="5.63636" rx="2" transform="rotate(180 32.376 611.545)" fill="#FF0000"/>
<rect x="32.376" y="583.364" width="5.92658" height="5.63636" rx="2" transform="rotate(180 32.376 583.364)" fill="#FF0000"/>
<rect x="32.376" y="597.455" width="5.92658" height="5.63636" rx="2" transform="rotate(180 32.376 597.455)" fill="#FF0000"/>
<rect x="32.376" y="569.273" width="5.92658" height="5.63636" rx="2" transform="rotate(180 32.376 569.273)" fill="#FF0000"/>
<rect x="32.376" y="555.182" width="5.92658" height="5.63636" rx="2" transform="rotate(180 32.376 555.182)" fill="#FF0000"/>
<rect width="5.92658" height="5.63636" rx="2" transform="matrix(-1 0 0 1 2.7431 620)" fill="#FF0000"/>
<rect width="5.92658" height="5.63636" rx="2" transform="matrix(-1 0 0 1 2.7431 648.182)" fill="#FF0000"/>
<rect width="5.92658" height="5.63636" rx="2" transform="matrix(-1 0 0 1 2.7431 634.091)" fill="#FF0000"/>
<rect width="5.92658" height="5.63636" rx="2" transform="matrix(-1 0 0 1 2.7431 662.273)" fill="#FF0000"/>
<rect width="5.92658" height="5.63636" rx="2" transform="matrix(-1 0 0 1 2.7431 676.364)" fill="#FF0000"/>
<rect x="47.1924" y="611.545" width="5.92658" height="5.63636" rx="2" transform="rotate(180 47.1924 611.545)" fill="#FF0000"/>
<rect x="47.1924" y="583.364" width="5.92658" height="5.63636" rx="2" transform="rotate(180 47.1924 583.364)" fill="#FF0000"/>
<rect x="47.1924" y="597.455" width="5.92658" height="5.63636" rx="2" transform="rotate(180 47.1924 597.455)" fill="#FF0000"/>
<rect x="47.1924" y="569.273" width="5.92658" height="5.63636" rx="2" transform="rotate(180 47.1924 569.273)" fill="#FF0000"/>
<rect x="47.1924" y="555.182" width="5.92658" height="5.63636" rx="2" transform="rotate(180 47.1924 555.182)" fill="#FF0000"/>
<rect width="5.92658" height="5.63636" rx="2" transform="matrix(-1 0 0 1 17.5595 549.545)" fill="#0DB760"/>
<rect width="5.92658" height="5.63636" rx="2" transform="matrix(-1 0 0 1 17.5594 577.727)" fill="#0DB760"/>
<rect width="5.92658" height="5.63636" rx="2" transform="matrix(-1 0 0 1 17.5594 563.636)" fill="#0DB760"/>
<rect width="5.92658" height="5.63636" rx="2" transform="matrix(-1 0 0 1 17.5594 591.818)" fill="#0DB760"/>
<rect width="5.92658" height="5.63636" rx="2" transform="matrix(-1 0 0 1 17.5594 605.909)" fill="#0DB760"/>
<rect x="32.376" y="682" width="5.92658" height="5.63636" rx="2" transform="rotate(180 32.376 682)" fill="#0DB760"/>
<rect x="32.376" y="653.818" width="5.92658" height="5.63636" rx="2" transform="rotate(180 32.376 653.818)" fill="#0DB760"/>
<rect x="32.376" y="667.909" width="5.92658" height="5.63636" rx="2" transform="rotate(180 32.376 667.909)" fill="#0DB760"/>
<rect x="32.376" y="639.727" width="5.92658" height="5.63636" rx="2" transform="rotate(180 32.376 639.727)" fill="#0DB760"/>
<rect x="32.376" y="625.636" width="5.92658" height="5.63636" rx="2" transform="rotate(180 32.376 625.636)" fill="#0DB760"/>
<rect width="5.92658" height="5.63636" rx="2" transform="matrix(-1 0 0 1 2.7431 549.545)" fill="#0DB760"/>
<rect width="5.92658" height="5.63636" rx="2" transform="matrix(-1 0 0 1 2.7431 577.727)" fill="#0DB760"/>
<rect width="5.92658" height="5.63636" rx="2" transform="matrix(-1 0 0 1 2.7431 563.636)" fill="#0DB760"/>
<rect width="5.92658" height="5.63636" rx="2" transform="matrix(-1 0 0 1 2.7431 591.818)" fill="#0DB760"/>
<rect width="5.92658" height="5.63636" rx="2" transform="matrix(-1 0 0 1 2.7431 605.909)" fill="#0DB760"/>
<rect x="47.1924" y="682" width="5.92658" height="5.63636" rx="2" transform="rotate(180 47.1924 682)" fill="#0DB760"/>
<rect x="47.1924" y="653.818" width="5.92658" height="5.63636" rx="2" transform="rotate(180 47.1924 653.818)" fill="#0DB760"/>
<rect x="47.1924" y="667.909" width="5.92658" height="5.63636" rx="2" transform="rotate(180 47.1924 667.909)" fill="#0DB760"/>
<rect x="47.1924" y="639.727" width="5.92658" height="5.63636" rx="2" transform="rotate(180 47.1924 639.727)" fill="#0DB760"/>
<rect x="47.1924" y="625.636" width="5.92658" height="5.63636" rx="2" transform="rotate(180 47.1924 625.636)" fill="#0DB760"/>
<rect width="5.92658" height="5.63636" rx="2" transform="matrix(-1 0 0 1 17.5595 620)" fill="#0DB760"/>
<rect width="5.92658" height="5.63636" rx="2" transform="matrix(-1 0 0 1 17.5594 648.182)" fill="#0DB760"/>
<rect width="5.92658" height="5.63636" rx="2" transform="matrix(-1 0 0 1 17.5594 634.091)" fill="#0DB760"/>
<rect width="5.92658" height="5.63636" rx="2" transform="matrix(-1 0 0 1 17.5594 662.273)" fill="#0DB760"/>
<rect width="5.92658" height="5.63636" rx="2" transform="matrix(-1 0 0 1 17.5594 676.364)" fill="#0DB760"/>
<rect x="41.2658" y="1949.45" width="5.92658" height="5.63636" rx="2" fill="#FF0000"/>
<rect x="41.2658" y="1977.64" width="5.92658" height="5.63636" rx="2" fill="#FF0000"/>
<rect x="41.2658" y="1963.55" width="5.92658" height="5.63636" rx="2" fill="#FF0000"/>
<rect x="41.2658" y="1991.73" width="5.92658" height="5.63636" rx="2" fill="#FF0000"/>
<rect x="41.2658" y="2005.82" width="5.92658" height="5.63636" rx="2" fill="#FF0000"/>
<rect width="5.92658" height="5.63636" rx="2" transform="matrix(1 0 0 -1 -3.18359 1941)" fill="#FF0000"/>
<rect width="5.92658" height="5.63636" rx="2" transform="matrix(1 0 0 -1 -3.18365 1912.82)" fill="#FF0000"/>
<rect width="5.92658" height="5.63636" rx="2" transform="matrix(1 0 0 -1 -3.18365 1926.91)" fill="#FF0000"/>
<rect width="5.92658" height="5.63636" rx="2" transform="matrix(1 0 0 -1 -3.18365 1898.73)" fill="#FF0000"/>
<rect width="5.92658" height="5.63636" rx="2" transform="matrix(1 0 0 -1 -3.18365 1884.64)" fill="#FF0000"/>
<rect x="26.4493" y="1949.45" width="5.92658" height="5.63636" rx="2" fill="#FF0000"/>
<rect x="26.4493" y="1977.64" width="5.92658" height="5.63636" rx="2" fill="#FF0000"/>
<rect x="26.4493" y="1963.55" width="5.92658" height="5.63636" rx="2" fill="#FF0000"/>
<rect x="26.4493" y="1991.73" width="5.92658" height="5.63636" rx="2" fill="#FF0000"/>
<rect x="26.4493" y="2005.82" width="5.92658" height="5.63636" rx="2" fill="#FF0000"/>
<rect x="11.6329" y="1879" width="5.92658" height="5.63636" rx="2" fill="#0DB760"/>
<rect x="11.633" y="1907.18" width="5.92658" height="5.63636" rx="2" fill="#0DB760"/>
<rect x="11.633" y="1893.09" width="5.92658" height="5.63636" rx="2" fill="#0DB760"/>
<rect x="11.633" y="1921.27" width="5.92658" height="5.63636" rx="2" fill="#0DB760"/>
<rect x="11.633" y="1935.36" width="5.92658" height="5.63636" rx="2" fill="#0DB760"/>
<rect x="41.2658" y="1879" width="5.92658" height="5.63636" rx="2" fill="#0DB760"/>
<rect x="41.2658" y="1907.18" width="5.92658" height="5.63636" rx="2" fill="#0DB760"/>
<rect x="41.2658" y="1893.09" width="5.92658" height="5.63636" rx="2" fill="#0DB760"/>
<rect x="41.2658" y="1921.27" width="5.92658" height="5.63636" rx="2" fill="#0DB760"/>
<rect x="41.2658" y="1935.36" width="5.92658" height="5.63636" rx="2" fill="#0DB760"/>
<rect width="5.92658" height="5.63636" rx="2" transform="matrix(1 0 0 -1 -3.18359 2011.45)" fill="#0DB760"/>
<rect width="5.92658" height="5.63636" rx="2" transform="matrix(1 0 0 -1 -3.18365 1983.27)" fill="#0DB760"/>
<rect width="5.92658" height="5.63636" rx="2" transform="matrix(1 0 0 -1 -3.18365 1997.36)" fill="#0DB760"/>
<rect width="5.92658" height="5.63636" rx="2" transform="matrix(1 0 0 -1 -3.18365 1969.18)" fill="#0DB760"/>
<rect width="5.92658" height="5.63636" rx="2" transform="matrix(1 0 0 -1 -3.18365 1955.09)" fill="#0DB760"/>
<rect x="26.4493" y="1879" width="5.92658" height="5.63636" rx="2" fill="#0DB760"/>
<rect x="26.4493" y="1907.18" width="5.92658" height="5.63636" rx="2" fill="#0DB760"/>
<rect x="26.4493" y="1893.09" width="5.92658" height="5.63636" rx="2" fill="#0DB760"/>
<rect x="26.4493" y="1921.27" width="5.92658" height="5.63636" rx="2" fill="#0DB760"/>
<rect x="26.4493" y="1935.36" width="5.92658" height="5.63636" rx="2" fill="#0DB760"/>
<rect x="11.6329" y="1949.45" width="5.92658" height="5.63636" rx="2" fill="#0DB760"/>
<rect x="11.633" y="1977.64" width="5.92658" height="5.63636" rx="2" fill="#0DB760"/>
<rect x="11.633" y="1963.55" width="5.92658" height="5.63636" rx="2" fill="#0DB760"/>
<rect x="11.633" y="1991.73" width="5.92658" height="5.63636" rx="2" fill="#0DB760"/>
<rect x="11.633" y="2005.82" width="5.92658" height="5.63636" rx="2" fill="#0DB760"/>
<rect width="5.92658" height="5.63636" rx="2" transform="matrix(-1 0 0 1 1474.73 1370.45)" fill="#FF0000"/>
<rect width="5.92658" height="5.63636" rx="2" transform="matrix(-1 0 0 1 1474.73 1398.64)" fill="#FF0000"/>
<rect width="5.92658" height="5.63636" rx="2" transform="matrix(-1 0 0 1 1474.73 1384.55)" fill="#FF0000"/>
<rect width="5.92658" height="5.63636" rx="2" transform="matrix(-1 0 0 1 1474.73 1412.73)" fill="#FF0000"/>
<rect width="5.92658" height="5.63636" rx="2" transform="matrix(-1 0 0 1 1474.73 1426.82)" fill="#FF0000"/>
<rect x="1519.18" y="1362" width="5.92658" height="5.63636" rx="2" transform="rotate(180 1519.18 1362)" fill="#FF0000"/>
<rect x="1519.18" y="1333.82" width="5.92658" height="5.63636" rx="2" transform="rotate(180 1519.18 1333.82)" fill="#FF0000"/>
<rect x="1519.18" y="1347.91" width="5.92658" height="5.63636" rx="2" transform="rotate(180 1519.18 1347.91)" fill="#FF0000"/>
<rect x="1519.18" y="1319.73" width="5.92658" height="5.63636" rx="2" transform="rotate(180 1519.18 1319.73)" fill="#FF0000"/>
<rect x="1519.18" y="1305.64" width="5.92658" height="5.63636" rx="2" transform="rotate(180 1519.18 1305.64)" fill="#FF0000"/>
<rect width="5.92658" height="5.63636" rx="2" transform="matrix(-1 0 0 1 1489.55 1370.45)" fill="#FF0000"/>
<rect width="5.92658" height="5.63636" rx="2" transform="matrix(-1 0 0 1 1489.55 1398.64)" fill="#FF0000"/>
<rect width="5.92658" height="5.63636" rx="2" transform="matrix(-1 0 0 1 1489.55 1384.55)" fill="#FF0000"/>
<rect width="5.92658" height="5.63636" rx="2" transform="matrix(-1 0 0 1 1489.55 1412.73)" fill="#FF0000"/>
<rect width="5.92658" height="5.63636" rx="2" transform="matrix(-1 0 0 1 1489.55 1426.82)" fill="#FF0000"/>
<rect x="1534" y="1362" width="5.92658" height="5.63636" rx="2" transform="rotate(180 1534 1362)" fill="#FF0000"/>
<rect x="1534" y="1333.82" width="5.92658" height="5.63636" rx="2" transform="rotate(180 1534 1333.82)" fill="#FF0000"/>
<rect x="1534" y="1347.91" width="5.92658" height="5.63636" rx="2" transform="rotate(180 1534 1347.91)" fill="#FF0000"/>
<rect x="1534" y="1319.73" width="5.92658" height="5.63636" rx="2" transform="rotate(180 1534 1319.73)" fill="#FF0000"/>
<rect x="1534" y="1305.64" width="5.92658" height="5.63636" rx="2" transform="rotate(180 1534 1305.64)" fill="#FF0000"/>
<rect width="5.92658" height="5.63636" rx="2" transform="matrix(-1 0 0 1 1504.37 1300)" fill="#0DB760"/>
<rect width="5.92658" height="5.63636" rx="2" transform="matrix(-1 0 0 1 1504.37 1328.18)" fill="#0DB760"/>
<rect width="5.92658" height="5.63636" rx="2" transform="matrix(-1 0 0 1 1504.37 1314.09)" fill="#0DB760"/>
<rect width="5.92658" height="5.63636" rx="2" transform="matrix(-1 0 0 1 1504.37 1342.27)" fill="#0DB760"/>
<rect width="5.92658" height="5.63636" rx="2" transform="matrix(-1 0 0 1 1504.37 1356.36)" fill="#0DB760"/>
<rect width="5.92658" height="5.63636" rx="2" transform="matrix(-1 0 0 1 1474.73 1300)" fill="#0DB760"/>
<rect width="5.92658" height="5.63636" rx="2" transform="matrix(-1 0 0 1 1474.73 1328.18)" fill="#0DB760"/>
<rect width="5.92658" height="5.63636" rx="2" transform="matrix(-1 0 0 1 1474.73 1314.09)" fill="#0DB760"/>
<rect width="5.92658" height="5.63636" rx="2" transform="matrix(-1 0 0 1 1474.73 1342.27)" fill="#0DB760"/>
<rect width="5.92658" height="5.63636" rx="2" transform="matrix(-1 0 0 1 1474.73 1356.36)" fill="#0DB760"/>
<rect x="1519.18" y="1432.45" width="5.92658" height="5.63636" rx="2" transform="rotate(180 1519.18 1432.45)" fill="#0DB760"/>
<rect x="1519.18" y="1404.27" width="5.92658" height="5.63636" rx="2" transform="rotate(180 1519.18 1404.27)" fill="#0DB760"/>
<rect x="1519.18" y="1418.36" width="5.92658" height="5.63636" rx="2" transform="rotate(180 1519.18 1418.36)" fill="#0DB760"/>
<rect x="1519.18" y="1390.18" width="5.92658" height="5.63636" rx="2" transform="rotate(180 1519.18 1390.18)" fill="#0DB760"/>
<rect x="1519.18" y="1376.09" width="5.92658" height="5.63636" rx="2" transform="rotate(180 1519.18 1376.09)" fill="#0DB760"/>
<rect width="5.92658" height="5.63636" rx="2" transform="matrix(-1 0 0 1 1489.55 1300)" fill="#0DB760"/>
<rect width="5.92658" height="5.63636" rx="2" transform="matrix(-1 0 0 1 1489.55 1328.18)" fill="#0DB760"/>
<rect width="5.92658" height="5.63636" rx="2" transform="matrix(-1 0 0 1 1489.55 1314.09)" fill="#0DB760"/>
<rect width="5.92658" height="5.63636" rx="2" transform="matrix(-1 0 0 1 1489.55 1342.27)" fill="#0DB760"/>
<rect width="5.92658" height="5.63636" rx="2" transform="matrix(-1 0 0 1 1489.55 1356.36)" fill="#0DB760"/>
<rect x="1534" y="1432.45" width="5.92658" height="5.63636" rx="2" transform="rotate(180 1534 1432.45)" fill="#0DB760"/>
<rect x="1534" y="1404.27" width="5.92658" height="5.63636" rx="2" transform="rotate(180 1534 1404.27)" fill="#0DB760"/>
<rect x="1534" y="1418.36" width="5.92658" height="5.63636" rx="2" transform="rotate(180 1534 1418.36)" fill="#0DB760"/>
<rect x="1534" y="1390.18" width="5.92658" height="5.63636" rx="2" transform="rotate(180 1534 1390.18)" fill="#0DB760"/>
<rect x="1534" y="1376.09" width="5.92658" height="5.63636" rx="2" transform="rotate(180 1534 1376.09)" fill="#0DB760"/>
<rect width="5.92658" height="5.63636" rx="2" transform="matrix(-1 0 0 1 1504.37 1370.45)" fill="#0DB760"/>
<rect width="5.92658" height="5.63636" rx="2" transform="matrix(-1 0 0 1 1504.37 1398.64)" fill="#0DB760"/>
<rect width="5.92658" height="5.63636" rx="2" transform="matrix(-1 0 0 1 1504.37 1384.55)" fill="#0DB760"/>
<rect width="5.92658" height="5.63636" rx="2" transform="matrix(-1 0 0 1 1504.37 1412.73)" fill="#0DB760"/>
<rect width="5.92658" height="5.63636" rx="2" transform="matrix(-1 0 0 1 1504.37 1426.82)" fill="#0DB760"/>
<rect x="1528.07" y="70.4545" width="5.92658" height="5.63636" rx="2" fill="#FF0000"/>
<rect x="1528.07" y="98.6364" width="5.92658" height="5.63636" rx="2" fill="#FF0000"/>
<rect x="1528.07" y="84.5454" width="5.92658" height="5.63636" rx="2" fill="#FF0000"/>
<rect x="1528.07" y="112.727" width="5.92658" height="5.63636" rx="2" fill="#FF0000"/>
<rect x="1528.07" y="126.818" width="5.92658" height="5.63636" rx="2" fill="#FF0000"/>
<rect width="5.92658" height="5.63636" rx="2" transform="matrix(1 0 0 -1 1483.62 62)" fill="#FF0000"/>
<rect width="5.92658" height="5.63636" rx="2" transform="matrix(1 0 0 -1 1483.62 33.8182)" fill="#FF0000"/>
<rect width="5.92658" height="5.63636" rx="2" transform="matrix(1 0 0 -1 1483.62 47.9091)" fill="#FF0000"/>
<rect width="5.92658" height="5.63636" rx="2" transform="matrix(1 0 0 -1 1483.62 19.7273)" fill="#FF0000"/>
<rect width="5.92658" height="5.63636" rx="2" transform="matrix(1 0 0 -1 1483.62 5.63641)" fill="#FF0000"/>
<rect x="1513.26" y="70.4545" width="5.92658" height="5.63636" rx="2" fill="#FF0000"/>
<rect x="1513.26" y="98.6364" width="5.92658" height="5.63636" rx="2" fill="#FF0000"/>
<rect x="1513.26" y="84.5454" width="5.92658" height="5.63636" rx="2" fill="#FF0000"/>
<rect x="1513.26" y="112.727" width="5.92658" height="5.63636" rx="2" fill="#FF0000"/>
<rect x="1513.26" y="126.818" width="5.92658" height="5.63636" rx="2" fill="#FF0000"/>
<rect width="5.92658" height="5.63636" rx="2" transform="matrix(1 0 0 -1 1468.81 62)" fill="#FF0000"/>
<rect width="5.92658" height="5.63636" rx="2" transform="matrix(1 0 0 -1 1468.81 33.8182)" fill="#FF0000"/>
<rect width="5.92658" height="5.63636" rx="2" transform="matrix(1 0 0 -1 1468.81 47.9091)" fill="#FF0000"/>
<rect width="5.92658" height="5.63636" rx="2" transform="matrix(1 0 0 -1 1468.81 19.7273)" fill="#FF0000"/>
<rect width="5.92658" height="5.63636" rx="2" transform="matrix(1 0 0 -1 1468.81 5.63641)" fill="#FF0000"/>
<rect x="1498.44" width="5.92658" height="5.63636" rx="2" fill="#0DB760"/>
<rect x="1498.44" y="28.1819" width="5.92658" height="5.63636" rx="2" fill="#0DB760"/>
<rect x="1498.44" y="14.0909" width="5.92658" height="5.63636" rx="2" fill="#0DB760"/>
<rect x="1498.44" y="42.2728" width="5.92658" height="5.63636" rx="2" fill="#0DB760"/>
<rect x="1498.44" y="56.3637" width="5.92658" height="5.63636" rx="2" fill="#0DB760"/>
<rect x="1528.07" width="5.92658" height="5.63636" rx="2" fill="#0DB760"/>
<rect x="1528.07" y="28.1819" width="5.92658" height="5.63636" rx="2" fill="#0DB760"/>
<rect x="1528.07" y="14.0909" width="5.92658" height="5.63636" rx="2" fill="#0DB760"/>
<rect x="1528.07" y="42.2728" width="5.92658" height="5.63636" rx="2" fill="#0DB760"/>
<rect x="1528.07" y="56.3637" width="5.92658" height="5.63636" rx="2" fill="#0DB760"/>
<rect width="5.92658" height="5.63636" rx="2" transform="matrix(1 0 0 -1 1483.62 132.455)" fill="#0DB760"/>
<rect width="5.92658" height="5.63636" rx="2" transform="matrix(1 0 0 -1 1483.62 104.273)" fill="#0DB760"/>
<rect width="5.92658" height="5.63636" rx="2" transform="matrix(1 0 0 -1 1483.62 118.364)" fill="#0DB760"/>
<rect width="5.92658" height="5.63636" rx="2" transform="matrix(1 0 0 -1 1483.62 90.1818)" fill="#0DB760"/>
<rect width="5.92658" height="5.63636" rx="2" transform="matrix(1 0 0 -1 1483.62 76.0909)" fill="#0DB760"/>
<rect x="1513.26" width="5.92658" height="5.63636" rx="2" fill="#0DB760"/>
<rect x="1513.26" y="28.1819" width="5.92658" height="5.63636" rx="2" fill="#0DB760"/>
<rect x="1513.26" y="14.0909" width="5.92658" height="5.63636" rx="2" fill="#0DB760"/>
<rect x="1513.26" y="42.2728" width="5.92658" height="5.63636" rx="2" fill="#0DB760"/>
<rect x="1513.26" y="56.3637" width="5.92658" height="5.63636" rx="2" fill="#0DB760"/>
<rect width="5.92658" height="5.63636" rx="2" transform="matrix(1 0 0 -1 1468.81 132.455)" fill="#0DB760"/>
<rect width="5.92658" height="5.63636" rx="2" transform="matrix(1 0 0 -1 1468.81 104.273)" fill="#0DB760"/>
<rect width="5.92658" height="5.63636" rx="2" transform="matrix(1 0 0 -1 1468.81 118.364)" fill="#0DB760"/>
<rect width="5.92658" height="5.63636" rx="2" transform="matrix(1 0 0 -1 1468.81 90.1818)" fill="#0DB760"/>
<rect width="5.92658" height="5.63636" rx="2" transform="matrix(1 0 0 -1 1468.81 76.0909)" fill="#0DB760"/>
<rect x="1498.44" y="70.4545" width="5.92658" height="5.63636" rx="2" fill="#0DB760"/>
<rect x="1498.44" y="98.6364" width="5.92658" height="5.63636" rx="2" fill="#0DB760"/>
<rect x="1498.44" y="84.5454" width="5.92658" height="5.63636" rx="2" fill="#0DB760"/>
<rect x="1498.44" y="112.727" width="5.92658" height="5.63636" rx="2" fill="#0DB760"/>
<rect x="1498.44" y="126.818" width="5.92658" height="5.63636" rx="2" fill="#0DB760"/>
<ellipse cx="1453.04" cy="1981" rx="3.15447" ry="3" fill="#24FF00"/>
<ellipse cx="1429.9" cy="2085" rx="7.36043" ry="7" fill="#FF0000"/>
<ellipse cx="1490.89" cy="2166" rx="3.15447" ry="3" fill="#0047FF"/>
<ellipse cx="1453.04" cy="417" rx="3.15447" ry="3" fill="#24FF00"/>
<ellipse cx="1429.9" cy="521" rx="7.36043" ry="7" fill="#FF0000"/>
<ellipse cx="1490.89" cy="602" rx="3.15447" ry="3" fill="#0047FF"/>
<ellipse rx="3.15447" ry="3" transform="matrix(-1 0 0 1 62.9647 1206)" fill="#24FF00"/>
<ellipse rx="7.36043" ry="7" transform="matrix(-1 0 0 1 86.0976 1310)" fill="#FF0000"/>
<ellipse rx="3.15447" ry="3" transform="matrix(-1 0 0 1 25.1111 1391)" fill="#0047FF"/>
</svg>
