<svg width="1534" height="2169" viewBox="0 0 1534 2169" fill="none" xmlns="http://www.w3.org/2000/svg">
<rect width="5.85785" height="5.63636" rx="2" transform="matrix(-1 0 0 1 5.85785 620)" fill="#FF0000"/>
<rect width="5.85785" height="5.63636" rx="2" transform="matrix(-1 0 0 1 5.85785 648.182)" fill="#FF0000"/>
<rect width="5.85785" height="5.63636" rx="2" transform="matrix(-1 0 0 1 5.85785 634.091)" fill="#FF0000"/>
<rect width="5.85785" height="5.63636" rx="2" transform="matrix(-1 0 0 1 5.85785 662.273)" fill="#FF0000"/>
<rect width="5.85785" height="5.63636" rx="2" transform="matrix(-1 0 0 1 5.85785 676.364)" fill="#FF0000"/>
<rect x="49.7917" y="611.545" width="5.85785" height="5.63636" rx="2" transform="rotate(180 49.7917 611.545)" fill="#FF0000"/>
<rect x="49.7917" y="583.364" width="5.85785" height="5.63636" rx="2" transform="rotate(180 49.7917 583.364)" fill="#FF0000"/>
<rect x="49.7917" y="597.455" width="5.85785" height="5.63636" rx="2" transform="rotate(180 49.7917 597.455)" fill="#FF0000"/>
<rect x="49.7917" y="569.273" width="5.85785" height="5.63636" rx="2" transform="rotate(180 49.7917 569.273)" fill="#FF0000"/>
<rect x="49.7917" y="555.182" width="5.85785" height="5.63636" rx="2" transform="rotate(180 49.7917 555.182)" fill="#FF0000"/>
<rect width="5.85785" height="5.63636" rx="2" transform="matrix(-1 0 0 1 20.5024 620)" fill="#FF0000"/>
<rect width="5.85785" height="5.63636" rx="2" transform="matrix(-1 0 0 1 20.5024 648.182)" fill="#FF0000"/>
<rect width="5.85785" height="5.63636" rx="2" transform="matrix(-1 0 0 1 20.5024 634.091)" fill="#FF0000"/>
<rect width="5.85785" height="5.63636" rx="2" transform="matrix(-1 0 0 1 20.5024 662.273)" fill="#FF0000"/>
<rect width="5.85785" height="5.63636" rx="2" transform="matrix(-1 0 0 1 20.5024 676.364)" fill="#FF0000"/>
<rect x="64.4363" y="611.545" width="5.85785" height="5.63636" rx="2" transform="rotate(180 64.4363 611.545)" fill="#FF0000"/>
<rect x="64.4363" y="583.364" width="5.85785" height="5.63636" rx="2" transform="rotate(180 64.4363 583.364)" fill="#FF0000"/>
<rect x="64.4363" y="597.455" width="5.85785" height="5.63636" rx="2" transform="rotate(180 64.4363 597.455)" fill="#FF0000"/>
<rect x="64.4363" y="569.273" width="5.85785" height="5.63636" rx="2" transform="rotate(180 64.4363 569.273)" fill="#FF0000"/>
<rect x="64.4363" y="555.182" width="5.85785" height="5.63636" rx="2" transform="rotate(180 64.4363 555.182)" fill="#FF0000"/>
<rect width="5.85785" height="5.63636" rx="2" transform="matrix(-1 0 0 1 35.147 549.545)" fill="#0DB760"/>
<rect width="5.85785" height="5.63636" rx="2" transform="matrix(-1 0 0 1 35.147 577.727)" fill="#0DB760"/>
<rect width="5.85785" height="5.63636" rx="2" transform="matrix(-1 0 0 1 35.147 563.636)" fill="#0DB760"/>
<rect width="5.85785" height="5.63636" rx="2" transform="matrix(-1 0 0 1 35.147 591.818)" fill="#0DB760"/>
<rect width="5.85785" height="5.63636" rx="2" transform="matrix(-1 0 0 1 35.147 605.909)" fill="#0DB760"/>
<rect width="5.85785" height="5.63636" rx="2" transform="matrix(-1 0 0 1 5.85785 549.545)" fill="#0DB760"/>
<rect width="5.85785" height="5.63636" rx="2" transform="matrix(-1 0 0 1 5.85785 577.727)" fill="#0DB760"/>
<rect width="5.85785" height="5.63636" rx="2" transform="matrix(-1 0 0 1 5.85785 563.636)" fill="#0DB760"/>
<rect width="5.85785" height="5.63636" rx="2" transform="matrix(-1 0 0 1 5.85785 591.818)" fill="#0DB760"/>
<rect width="5.85785" height="5.63636" rx="2" transform="matrix(-1 0 0 1 5.85785 605.909)" fill="#0DB760"/>
<rect x="49.7917" y="682" width="5.85785" height="5.63636" rx="2" transform="rotate(180 49.7917 682)" fill="#0DB760"/>
<rect x="49.7917" y="653.818" width="5.85785" height="5.63636" rx="2" transform="rotate(180 49.7917 653.818)" fill="#0DB760"/>
<rect x="49.7917" y="667.909" width="5.85785" height="5.63636" rx="2" transform="rotate(180 49.7917 667.909)" fill="#0DB760"/>
<rect x="49.7917" y="639.727" width="5.85785" height="5.63636" rx="2" transform="rotate(180 49.7917 639.727)" fill="#0DB760"/>
<rect x="49.7917" y="625.636" width="5.85785" height="5.63636" rx="2" transform="rotate(180 49.7917 625.636)" fill="#0DB760"/>
<rect width="5.85785" height="5.63636" rx="2" transform="matrix(-1 0 0 1 20.5024 549.545)" fill="#0DB760"/>
<rect width="5.85785" height="5.63636" rx="2" transform="matrix(-1 0 0 1 20.5024 577.727)" fill="#0DB760"/>
<rect width="5.85785" height="5.63636" rx="2" transform="matrix(-1 0 0 1 20.5024 563.636)" fill="#0DB760"/>
<rect width="5.85785" height="5.63636" rx="2" transform="matrix(-1 0 0 1 20.5024 591.818)" fill="#0DB760"/>
<rect width="5.85785" height="5.63636" rx="2" transform="matrix(-1 0 0 1 20.5024 605.909)" fill="#0DB760"/>
<rect x="64.4363" y="682" width="5.85785" height="5.63636" rx="2" transform="rotate(180 64.4363 682)" fill="#0DB760"/>
<rect x="64.4363" y="653.818" width="5.85785" height="5.63636" rx="2" transform="rotate(180 64.4363 653.818)" fill="#0DB760"/>
<rect x="64.4363" y="667.909" width="5.85785" height="5.63636" rx="2" transform="rotate(180 64.4363 667.909)" fill="#0DB760"/>
<rect x="64.4363" y="639.727" width="5.85785" height="5.63636" rx="2" transform="rotate(180 64.4363 639.727)" fill="#0DB760"/>
<rect x="64.4363" y="625.636" width="5.85785" height="5.63636" rx="2" transform="rotate(180 64.4363 625.636)" fill="#0DB760"/>
<rect width="5.85785" height="5.63636" rx="2" transform="matrix(-1 0 0 1 35.147 620)" fill="#0DB760"/>
<rect width="5.85785" height="5.63636" rx="2" transform="matrix(-1 0 0 1 35.147 648.182)" fill="#0DB760"/>
<rect width="5.85785" height="5.63636" rx="2" transform="matrix(-1 0 0 1 35.147 634.091)" fill="#0DB760"/>
<rect width="5.85785" height="5.63636" rx="2" transform="matrix(-1 0 0 1 35.147 662.273)" fill="#0DB760"/>
<rect width="5.85785" height="5.63636" rx="2" transform="matrix(-1 0 0 1 35.147 676.364)" fill="#0DB760"/>
<rect x="58.5784" y="1949.45" width="5.85785" height="5.63636" rx="2" fill="#FF0000"/>
<rect x="58.5784" y="1977.64" width="5.85785" height="5.63636" rx="2" fill="#FF0000"/>
<rect x="58.5784" y="1963.55" width="5.85785" height="5.63636" rx="2" fill="#FF0000"/>
<rect x="58.5784" y="1991.73" width="5.85785" height="5.63636" rx="2" fill="#FF0000"/>
<rect x="58.5784" y="2005.82" width="5.85785" height="5.63636" rx="2" fill="#FF0000"/>
<rect width="5.85785" height="5.63636" rx="2" transform="matrix(1 0 0 -1 14.6446 1941)" fill="#FF0000"/>
<rect width="5.85785" height="5.63636" rx="2" transform="matrix(1 0 0 -1 14.6445 1912.82)" fill="#FF0000"/>
<rect width="5.85785" height="5.63636" rx="2" transform="matrix(1 0 0 -1 14.6445 1926.91)" fill="#FF0000"/>
<rect width="5.85785" height="5.63636" rx="2" transform="matrix(1 0 0 -1 14.6445 1898.73)" fill="#FF0000"/>
<rect width="5.85785" height="5.63636" rx="2" transform="matrix(1 0 0 -1 14.6445 1884.64)" fill="#FF0000"/>
<rect x="43.9338" y="1949.45" width="5.85785" height="5.63636" rx="2" fill="#FF0000"/>
<rect x="43.9338" y="1977.64" width="5.85785" height="5.63636" rx="2" fill="#FF0000"/>
<rect x="43.9338" y="1963.55" width="5.85785" height="5.63636" rx="2" fill="#FF0000"/>
<rect x="43.9338" y="1991.73" width="5.85785" height="5.63636" rx="2" fill="#FF0000"/>
<rect x="43.9338" y="2005.82" width="5.85785" height="5.63636" rx="2" fill="#FF0000"/>
<rect width="5.85785" height="5.63636" rx="2" transform="matrix(1 0 0 -1 0 1941)" fill="#FF0000"/>
<rect width="5.85785" height="5.63636" rx="2" transform="matrix(1 0 0 -1 0 1912.82)" fill="#FF0000"/>
<rect width="5.85785" height="5.63636" rx="2" transform="matrix(1 0 0 -1 0 1926.91)" fill="#FF0000"/>
<rect width="5.85785" height="5.63636" rx="2" transform="matrix(1 0 0 -1 0 1898.73)" fill="#FF0000"/>
<rect width="5.85785" height="5.63636" rx="2" transform="matrix(1 0 0 -1 0 1884.64)" fill="#FF0000"/>
<rect x="29.2893" y="1879" width="5.85785" height="5.63636" rx="2" fill="#0DB760"/>
<rect x="29.2894" y="1907.18" width="5.85785" height="5.63636" rx="2" fill="#0DB760"/>
<rect x="29.2894" y="1893.09" width="5.85785" height="5.63636" rx="2" fill="#0DB760"/>
<rect x="29.2894" y="1921.27" width="5.85785" height="5.63636" rx="2" fill="#0DB760"/>
<rect x="29.2894" y="1935.36" width="5.85785" height="5.63636" rx="2" fill="#0DB760"/>
<rect x="58.5784" y="1879" width="5.85785" height="5.63636" rx="2" fill="#0DB760"/>
<rect x="58.5784" y="1907.18" width="5.85785" height="5.63636" rx="2" fill="#0DB760"/>
<rect x="58.5784" y="1893.09" width="5.85785" height="5.63636" rx="2" fill="#0DB760"/>
<rect x="58.5784" y="1921.27" width="5.85785" height="5.63636" rx="2" fill="#0DB760"/>
<rect x="58.5784" y="1935.36" width="5.85785" height="5.63636" rx="2" fill="#0DB760"/>
<rect width="5.85785" height="5.63636" rx="2" transform="matrix(1 0 0 -1 14.6446 2011.45)" fill="#0DB760"/>
<rect width="5.85785" height="5.63636" rx="2" transform="matrix(1 0 0 -1 14.6445 1983.27)" fill="#0DB760"/>
<rect width="5.85785" height="5.63636" rx="2" transform="matrix(1 0 0 -1 14.6445 1997.36)" fill="#0DB760"/>
<rect width="5.85785" height="5.63636" rx="2" transform="matrix(1 0 0 -1 14.6445 1969.18)" fill="#0DB760"/>
<rect width="5.85785" height="5.63636" rx="2" transform="matrix(1 0 0 -1 14.6445 1955.09)" fill="#0DB760"/>
<rect x="43.9338" y="1879" width="5.85785" height="5.63636" rx="2" fill="#0DB760"/>
<rect x="43.9338" y="1907.18" width="5.85785" height="5.63636" rx="2" fill="#0DB760"/>
<rect x="43.9338" y="1893.09" width="5.85785" height="5.63636" rx="2" fill="#0DB760"/>
<rect x="43.9338" y="1921.27" width="5.85785" height="5.63636" rx="2" fill="#0DB760"/>
<rect x="43.9338" y="1935.36" width="5.85785" height="5.63636" rx="2" fill="#0DB760"/>
<rect width="5.85785" height="5.63636" rx="2" transform="matrix(1 0 0 -1 0 2011.45)" fill="#0DB760"/>
<rect width="5.85785" height="5.63636" rx="2" transform="matrix(1 0 0 -1 0 1983.27)" fill="#0DB760"/>
<rect width="5.85785" height="5.63636" rx="2" transform="matrix(1 0 0 -1 0 1997.36)" fill="#0DB760"/>
<rect width="5.85785" height="5.63636" rx="2" transform="matrix(1 0 0 -1 0 1969.18)" fill="#0DB760"/>
<rect width="5.85785" height="5.63636" rx="2" transform="matrix(1 0 0 -1 0 1955.09)" fill="#0DB760"/>
<rect x="29.2893" y="1949.45" width="5.85785" height="5.63636" rx="2" fill="#0DB760"/>
<rect x="29.2894" y="1977.64" width="5.85785" height="5.63636" rx="2" fill="#0DB760"/>
<rect x="29.2894" y="1963.55" width="5.85785" height="5.63636" rx="2" fill="#0DB760"/>
<rect x="29.2894" y="1991.73" width="5.85785" height="5.63636" rx="2" fill="#0DB760"/>
<rect x="29.2894" y="2005.82" width="5.85785" height="5.63636" rx="2" fill="#0DB760"/>
<rect width="5.85785" height="5.63636" rx="2" transform="matrix(-1 0 0 1 1475.42 1370.45)" fill="#FF0000"/>
<rect width="5.85785" height="5.63636" rx="2" transform="matrix(-1 0 0 1 1475.42 1398.64)" fill="#FF0000"/>
<rect width="5.85785" height="5.63636" rx="2" transform="matrix(-1 0 0 1 1475.42 1384.55)" fill="#FF0000"/>
<rect width="5.85785" height="5.63636" rx="2" transform="matrix(-1 0 0 1 1475.42 1412.73)" fill="#FF0000"/>
<rect width="5.85785" height="5.63636" rx="2" transform="matrix(-1 0 0 1 1475.42 1426.82)" fill="#FF0000"/>
<rect x="1519.36" y="1362" width="5.85785" height="5.63636" rx="2" transform="rotate(180 1519.36 1362)" fill="#FF0000"/>
<rect x="1519.36" y="1333.82" width="5.85785" height="5.63636" rx="2" transform="rotate(180 1519.36 1333.82)" fill="#FF0000"/>
<rect x="1519.36" y="1347.91" width="5.85785" height="5.63636" rx="2" transform="rotate(180 1519.36 1347.91)" fill="#FF0000"/>
<rect x="1519.36" y="1319.73" width="5.85785" height="5.63636" rx="2" transform="rotate(180 1519.36 1319.73)" fill="#FF0000"/>
<rect x="1519.36" y="1305.64" width="5.85785" height="5.63636" rx="2" transform="rotate(180 1519.36 1305.64)" fill="#FF0000"/>
<rect width="5.85785" height="5.63636" rx="2" transform="matrix(-1 0 0 1 1490.07 1370.45)" fill="#FF0000"/>
<rect width="5.85785" height="5.63636" rx="2" transform="matrix(-1 0 0 1 1490.07 1398.64)" fill="#FF0000"/>
<rect width="5.85785" height="5.63636" rx="2" transform="matrix(-1 0 0 1 1490.07 1384.55)" fill="#FF0000"/>
<rect width="5.85785" height="5.63636" rx="2" transform="matrix(-1 0 0 1 1490.07 1412.73)" fill="#FF0000"/>
<rect width="5.85785" height="5.63636" rx="2" transform="matrix(-1 0 0 1 1490.07 1426.82)" fill="#FF0000"/>
<rect x="1534" y="1362" width="5.85785" height="5.63636" rx="2" transform="rotate(180 1534 1362)" fill="#FF0000"/>
<rect x="1534" y="1333.82" width="5.85785" height="5.63636" rx="2" transform="rotate(180 1534 1333.82)" fill="#FF0000"/>
<rect x="1534" y="1347.91" width="5.85785" height="5.63636" rx="2" transform="rotate(180 1534 1347.91)" fill="#FF0000"/>
<rect x="1534" y="1319.73" width="5.85785" height="5.63636" rx="2" transform="rotate(180 1534 1319.73)" fill="#FF0000"/>
<rect x="1534" y="1305.64" width="5.85785" height="5.63636" rx="2" transform="rotate(180 1534 1305.64)" fill="#FF0000"/>
<rect width="5.85785" height="5.63636" rx="2" transform="matrix(-1 0 0 1 1504.71 1300)" fill="#0DB760"/>
<rect width="5.85785" height="5.63636" rx="2" transform="matrix(-1 0 0 1 1504.71 1328.18)" fill="#0DB760"/>
<rect width="5.85785" height="5.63636" rx="2" transform="matrix(-1 0 0 1 1504.71 1314.09)" fill="#0DB760"/>
<rect width="5.85785" height="5.63636" rx="2" transform="matrix(-1 0 0 1 1504.71 1342.27)" fill="#0DB760"/>
<rect width="5.85785" height="5.63636" rx="2" transform="matrix(-1 0 0 1 1504.71 1356.36)" fill="#0DB760"/>
<rect width="5.85785" height="5.63636" rx="2" transform="matrix(-1 0 0 1 1475.42 1300)" fill="#0DB760"/>
<rect width="5.85785" height="5.63636" rx="2" transform="matrix(-1 0 0 1 1475.42 1328.18)" fill="#0DB760"/>
<rect width="5.85785" height="5.63636" rx="2" transform="matrix(-1 0 0 1 1475.42 1314.09)" fill="#0DB760"/>
<rect width="5.85785" height="5.63636" rx="2" transform="matrix(-1 0 0 1 1475.42 1342.27)" fill="#0DB760"/>
<rect width="5.85785" height="5.63636" rx="2" transform="matrix(-1 0 0 1 1475.42 1356.36)" fill="#0DB760"/>
<rect x="1519.36" y="1432.45" width="5.85785" height="5.63636" rx="2" transform="rotate(180 1519.36 1432.45)" fill="#0DB760"/>
<rect x="1519.36" y="1404.27" width="5.85785" height="5.63636" rx="2" transform="rotate(180 1519.36 1404.27)" fill="#0DB760"/>
<rect x="1519.36" y="1418.36" width="5.85785" height="5.63636" rx="2" transform="rotate(180 1519.36 1418.36)" fill="#0DB760"/>
<rect x="1519.36" y="1390.18" width="5.85785" height="5.63636" rx="2" transform="rotate(180 1519.36 1390.18)" fill="#0DB760"/>
<rect x="1519.36" y="1376.09" width="5.85785" height="5.63636" rx="2" transform="rotate(180 1519.36 1376.09)" fill="#0DB760"/>
<rect width="5.85785" height="5.63636" rx="2" transform="matrix(-1 0 0 1 1490.07 1300)" fill="#0DB760"/>
<rect width="5.85785" height="5.63636" rx="2" transform="matrix(-1 0 0 1 1490.07 1328.18)" fill="#0DB760"/>
<rect width="5.85785" height="5.63636" rx="2" transform="matrix(-1 0 0 1 1490.07 1314.09)" fill="#0DB760"/>
<rect width="5.85785" height="5.63636" rx="2" transform="matrix(-1 0 0 1 1490.07 1342.27)" fill="#0DB760"/>
<rect width="5.85785" height="5.63636" rx="2" transform="matrix(-1 0 0 1 1490.07 1356.36)" fill="#0DB760"/>
<rect x="1534" y="1432.45" width="5.85785" height="5.63636" rx="2" transform="rotate(180 1534 1432.45)" fill="#0DB760"/>
<rect x="1534" y="1404.27" width="5.85785" height="5.63636" rx="2" transform="rotate(180 1534 1404.27)" fill="#0DB760"/>
<rect x="1534" y="1418.36" width="5.85785" height="5.63636" rx="2" transform="rotate(180 1534 1418.36)" fill="#0DB760"/>
<rect x="1534" y="1390.18" width="5.85785" height="5.63636" rx="2" transform="rotate(180 1534 1390.18)" fill="#0DB760"/>
<rect x="1534" y="1376.09" width="5.85785" height="5.63636" rx="2" transform="rotate(180 1534 1376.09)" fill="#0DB760"/>
<rect width="5.85785" height="5.63636" rx="2" transform="matrix(-1 0 0 1 1504.71 1370.45)" fill="#0DB760"/>
<rect width="5.85785" height="5.63636" rx="2" transform="matrix(-1 0 0 1 1504.71 1398.64)" fill="#0DB760"/>
<rect width="5.85785" height="5.63636" rx="2" transform="matrix(-1 0 0 1 1504.71 1384.55)" fill="#0DB760"/>
<rect width="5.85785" height="5.63636" rx="2" transform="matrix(-1 0 0 1 1504.71 1412.73)" fill="#0DB760"/>
<rect width="5.85785" height="5.63636" rx="2" transform="matrix(-1 0 0 1 1504.71 1426.82)" fill="#0DB760"/>
<rect x="1528.14" y="70.4545" width="5.85785" height="5.63636" rx="2" fill="#FF0000"/>
<rect x="1528.14" y="98.6364" width="5.85785" height="5.63636" rx="2" fill="#FF0000"/>
<rect x="1528.14" y="84.5454" width="5.85785" height="5.63636" rx="2" fill="#FF0000"/>
<rect x="1528.14" y="112.727" width="5.85785" height="5.63636" rx="2" fill="#FF0000"/>
<rect x="1528.14" y="126.818" width="5.85785" height="5.63636" rx="2" fill="#FF0000"/>
<rect width="5.85785" height="5.63636" rx="2" transform="matrix(1 0 0 -1 1484.21 62)" fill="#FF0000"/>
<rect width="5.85785" height="5.63636" rx="2" transform="matrix(1 0 0 -1 1484.21 33.8182)" fill="#FF0000"/>
<rect width="5.85785" height="5.63636" rx="2" transform="matrix(1 0 0 -1 1484.21 47.9091)" fill="#FF0000"/>
<rect width="5.85785" height="5.63636" rx="2" transform="matrix(1 0 0 -1 1484.21 19.7273)" fill="#FF0000"/>
<rect width="5.85785" height="5.63636" rx="2" transform="matrix(1 0 0 -1 1484.21 5.63641)" fill="#FF0000"/>
<rect x="1513.5" y="70.4545" width="5.85785" height="5.63636" rx="2" fill="#FF0000"/>
<rect x="1513.5" y="98.6364" width="5.85785" height="5.63636" rx="2" fill="#FF0000"/>
<rect x="1513.5" y="84.5454" width="5.85785" height="5.63636" rx="2" fill="#FF0000"/>
<rect x="1513.5" y="112.727" width="5.85785" height="5.63636" rx="2" fill="#FF0000"/>
<rect x="1513.5" y="126.818" width="5.85785" height="5.63636" rx="2" fill="#FF0000"/>
<rect width="5.85785" height="5.63636" rx="2" transform="matrix(1 0 0 -1 1469.56 62)" fill="#FF0000"/>
<rect width="5.85785" height="5.63636" rx="2" transform="matrix(1 0 0 -1 1469.56 33.8182)" fill="#FF0000"/>
<rect width="5.85785" height="5.63636" rx="2" transform="matrix(1 0 0 -1 1469.56 47.9091)" fill="#FF0000"/>
<rect width="5.85785" height="5.63636" rx="2" transform="matrix(1 0 0 -1 1469.56 19.7273)" fill="#FF0000"/>
<rect width="5.85785" height="5.63636" rx="2" transform="matrix(1 0 0 -1 1469.56 5.63641)" fill="#FF0000"/>
<rect x="1498.85" width="5.85785" height="5.63636" rx="2" fill="#0DB760"/>
<rect x="1498.85" y="28.1819" width="5.85785" height="5.63636" rx="2" fill="#0DB760"/>
<rect x="1498.85" y="14.0909" width="5.85785" height="5.63636" rx="2" fill="#0DB760"/>
<rect x="1498.85" y="42.2728" width="5.85785" height="5.63636" rx="2" fill="#0DB760"/>
<rect x="1498.85" y="56.3637" width="5.85785" height="5.63636" rx="2" fill="#0DB760"/>
<rect x="1528.14" width="5.85785" height="5.63636" rx="2" fill="#0DB760"/>
<rect x="1528.14" y="28.1819" width="5.85785" height="5.63636" rx="2" fill="#0DB760"/>
<rect x="1528.14" y="14.0909" width="5.85785" height="5.63636" rx="2" fill="#0DB760"/>
<rect x="1528.14" y="42.2728" width="5.85785" height="5.63636" rx="2" fill="#0DB760"/>
<rect x="1528.14" y="56.3637" width="5.85785" height="5.63636" rx="2" fill="#0DB760"/>
<rect width="5.85785" height="5.63636" rx="2" transform="matrix(1 0 0 -1 1484.21 132.455)" fill="#0DB760"/>
<rect width="5.85785" height="5.63636" rx="2" transform="matrix(1 0 0 -1 1484.21 104.273)" fill="#0DB760"/>
<rect width="5.85785" height="5.63636" rx="2" transform="matrix(1 0 0 -1 1484.21 118.364)" fill="#0DB760"/>
<rect width="5.85785" height="5.63636" rx="2" transform="matrix(1 0 0 -1 1484.21 90.1818)" fill="#0DB760"/>
<rect width="5.85785" height="5.63636" rx="2" transform="matrix(1 0 0 -1 1484.21 76.0909)" fill="#0DB760"/>
<rect x="1513.5" width="5.85785" height="5.63636" rx="2" fill="#0DB760"/>
<rect x="1513.5" y="28.1819" width="5.85785" height="5.63636" rx="2" fill="#0DB760"/>
<rect x="1513.5" y="14.0909" width="5.85785" height="5.63636" rx="2" fill="#0DB760"/>
<rect x="1513.5" y="42.2728" width="5.85785" height="5.63636" rx="2" fill="#0DB760"/>
<rect x="1513.5" y="56.3637" width="5.85785" height="5.63636" rx="2" fill="#0DB760"/>
<rect width="5.85785" height="5.63636" rx="2" transform="matrix(1 0 0 -1 1469.56 132.455)" fill="#0DB760"/>
<rect width="5.85785" height="5.63636" rx="2" transform="matrix(1 0 0 -1 1469.56 104.273)" fill="#0DB760"/>
<rect width="5.85785" height="5.63636" rx="2" transform="matrix(1 0 0 -1 1469.56 118.364)" fill="#0DB760"/>
<rect width="5.85785" height="5.63636" rx="2" transform="matrix(1 0 0 -1 1469.56 90.1818)" fill="#0DB760"/>
<rect width="5.85785" height="5.63636" rx="2" transform="matrix(1 0 0 -1 1469.56 76.0909)" fill="#0DB760"/>
<rect x="1498.85" y="70.4545" width="5.85785" height="5.63636" rx="2" fill="#0DB760"/>
<rect x="1498.85" y="98.6364" width="5.85785" height="5.63636" rx="2" fill="#0DB760"/>
<rect x="1498.85" y="84.5454" width="5.85785" height="5.63636" rx="2" fill="#0DB760"/>
<rect x="1498.85" y="112.727" width="5.85785" height="5.63636" rx="2" fill="#0DB760"/>
<rect x="1498.85" y="126.818" width="5.85785" height="5.63636" rx="2" fill="#0DB760"/>
<ellipse cx="1453.97" cy="1981" rx="3.11789" ry="3" fill="#24FF00"/>
<ellipse cx="1431.11" cy="2085" rx="7.27507" ry="7" fill="#FF0000"/>
<ellipse cx="1491.39" cy="2166" rx="3.11789" ry="3" fill="#0047FF"/>
<ellipse cx="1453.97" cy="417" rx="3.11789" ry="3" fill="#24FF00"/>
<ellipse cx="1431.11" cy="521" rx="7.27507" ry="7" fill="#FF0000"/>
<ellipse cx="1491.39" cy="602" rx="3.11789" ry="3" fill="#0047FF"/>
<ellipse rx="3.11789" ry="3" transform="matrix(-1 0 0 1 80.0258 1206)" fill="#24FF00"/>
<ellipse rx="7.27507" ry="7" transform="matrix(-1 0 0 1 102.89 1310)" fill="#FF0000"/>
<ellipse rx="3.11789" ry="3" transform="matrix(-1 0 0 1 42.6111 1391)" fill="#0047FF"/>
</svg>
