<svg width="1912" height="2169" viewBox="0 0 1912 2169" fill="none" xmlns="http://www.w3.org/2000/svg">
<rect width="7.30131" height="5.63636" rx="2" transform="matrix(-1 0 0 1 7.30127 620)" fill="#FF0000"/>
<rect width="7.30131" height="5.63636" rx="2" transform="matrix(-1 0 0 1 7.30127 648.182)" fill="#FF0000"/>
<rect width="7.30131" height="5.63636" rx="2" transform="matrix(-1 0 0 1 7.30127 634.091)" fill="#FF0000"/>
<rect width="7.30131" height="5.63636" rx="2" transform="matrix(-1 0 0 1 7.30127 662.273)" fill="#FF0000"/>
<rect width="7.30131" height="5.63636" rx="2" transform="matrix(-1 0 0 1 7.30127 676.364)" fill="#FF0000"/>
<rect x="62.0611" y="611.545" width="7.30131" height="5.63636" rx="2" transform="rotate(180 62.0611 611.545)" fill="#FF0000"/>
<rect x="62.0612" y="583.364" width="7.30131" height="5.63636" rx="2" transform="rotate(180 62.0612 583.364)" fill="#FF0000"/>
<rect x="62.0612" y="597.455" width="7.30131" height="5.63636" rx="2" transform="rotate(180 62.0612 597.455)" fill="#FF0000"/>
<rect x="62.0612" y="569.273" width="7.30131" height="5.63636" rx="2" transform="rotate(180 62.0612 569.273)" fill="#FF0000"/>
<rect x="62.0612" y="555.182" width="7.30131" height="5.63636" rx="2" transform="rotate(180 62.0612 555.182)" fill="#FF0000"/>
<rect width="7.30131" height="5.63636" rx="2" transform="matrix(-1 0 0 1 25.5546 620)" fill="#FF0000"/>
<rect width="7.30131" height="5.63636" rx="2" transform="matrix(-1 0 0 1 25.5546 648.182)" fill="#FF0000"/>
<rect width="7.30131" height="5.63636" rx="2" transform="matrix(-1 0 0 1 25.5546 634.091)" fill="#FF0000"/>
<rect width="7.30131" height="5.63636" rx="2" transform="matrix(-1 0 0 1 25.5546 662.273)" fill="#FF0000"/>
<rect width="7.30131" height="5.63636" rx="2" transform="matrix(-1 0 0 1 25.5546 676.364)" fill="#FF0000"/>
<rect x="80.3143" y="611.545" width="7.30131" height="5.63636" rx="2" transform="rotate(180 80.3143 611.545)" fill="#FF0000"/>
<rect x="80.3143" y="583.364" width="7.30131" height="5.63636" rx="2" transform="rotate(180 80.3143 583.364)" fill="#FF0000"/>
<rect x="80.3143" y="597.455" width="7.30131" height="5.63636" rx="2" transform="rotate(180 80.3143 597.455)" fill="#FF0000"/>
<rect x="80.3143" y="569.273" width="7.30131" height="5.63636" rx="2" transform="rotate(180 80.3143 569.273)" fill="#FF0000"/>
<rect x="80.3143" y="555.182" width="7.30131" height="5.63636" rx="2" transform="rotate(180 80.3143 555.182)" fill="#FF0000"/>
<rect width="7.30131" height="5.63636" rx="2" transform="matrix(-1 0 0 1 43.8078 549.545)" fill="#0DB760"/>
<rect width="7.30131" height="5.63636" rx="2" transform="matrix(-1 0 0 1 43.8077 577.727)" fill="#0DB760"/>
<rect width="7.30131" height="5.63636" rx="2" transform="matrix(-1 0 0 1 43.8077 563.636)" fill="#0DB760"/>
<rect width="7.30131" height="5.63636" rx="2" transform="matrix(-1 0 0 1 43.8077 591.818)" fill="#0DB760"/>
<rect width="7.30131" height="5.63636" rx="2" transform="matrix(-1 0 0 1 43.8077 605.909)" fill="#0DB760"/>
<rect width="7.30131" height="5.63636" rx="2" transform="matrix(-1 0 0 1 7.30127 549.545)" fill="#0DB760"/>
<rect width="7.30131" height="5.63636" rx="2" transform="matrix(-1 0 0 1 7.30127 577.727)" fill="#0DB760"/>
<rect width="7.30131" height="5.63636" rx="2" transform="matrix(-1 0 0 1 7.30127 563.636)" fill="#0DB760"/>
<rect width="7.30131" height="5.63636" rx="2" transform="matrix(-1 0 0 1 7.30127 591.818)" fill="#0DB760"/>
<rect width="7.30131" height="5.63636" rx="2" transform="matrix(-1 0 0 1 7.30127 605.909)" fill="#0DB760"/>
<rect x="62.0611" y="682" width="7.30131" height="5.63636" rx="2" transform="rotate(180 62.0611 682)" fill="#0DB760"/>
<rect x="62.0612" y="653.818" width="7.30131" height="5.63636" rx="2" transform="rotate(180 62.0612 653.818)" fill="#0DB760"/>
<rect x="62.0612" y="667.909" width="7.30131" height="5.63636" rx="2" transform="rotate(180 62.0612 667.909)" fill="#0DB760"/>
<rect x="62.0612" y="639.727" width="7.30131" height="5.63636" rx="2" transform="rotate(180 62.0612 639.727)" fill="#0DB760"/>
<rect x="62.0612" y="625.636" width="7.30131" height="5.63636" rx="2" transform="rotate(180 62.0612 625.636)" fill="#0DB760"/>
<rect width="7.30131" height="5.63636" rx="2" transform="matrix(-1 0 0 1 25.5546 549.545)" fill="#0DB760"/>
<rect width="7.30131" height="5.63636" rx="2" transform="matrix(-1 0 0 1 25.5546 577.727)" fill="#0DB760"/>
<rect width="7.30131" height="5.63636" rx="2" transform="matrix(-1 0 0 1 25.5546 563.636)" fill="#0DB760"/>
<rect width="7.30131" height="5.63636" rx="2" transform="matrix(-1 0 0 1 25.5546 591.818)" fill="#0DB760"/>
<rect width="7.30131" height="5.63636" rx="2" transform="matrix(-1 0 0 1 25.5546 605.909)" fill="#0DB760"/>
<rect x="80.3143" y="682" width="7.30131" height="5.63636" rx="2" transform="rotate(180 80.3143 682)" fill="#0DB760"/>
<rect x="80.3143" y="653.818" width="7.30131" height="5.63636" rx="2" transform="rotate(180 80.3143 653.818)" fill="#0DB760"/>
<rect x="80.3143" y="667.909" width="7.30131" height="5.63636" rx="2" transform="rotate(180 80.3143 667.909)" fill="#0DB760"/>
<rect x="80.3143" y="639.727" width="7.30131" height="5.63636" rx="2" transform="rotate(180 80.3143 639.727)" fill="#0DB760"/>
<rect x="80.3143" y="625.636" width="7.30131" height="5.63636" rx="2" transform="rotate(180 80.3143 625.636)" fill="#0DB760"/>
<rect width="7.30131" height="5.63636" rx="2" transform="matrix(-1 0 0 1 43.8078 620)" fill="#0DB760"/>
<rect width="7.30131" height="5.63636" rx="2" transform="matrix(-1 0 0 1 43.8077 648.182)" fill="#0DB760"/>
<rect width="7.30131" height="5.63636" rx="2" transform="matrix(-1 0 0 1 43.8077 634.091)" fill="#0DB760"/>
<rect width="7.30131" height="5.63636" rx="2" transform="matrix(-1 0 0 1 43.8077 662.273)" fill="#0DB760"/>
<rect width="7.30131" height="5.63636" rx="2" transform="matrix(-1 0 0 1 43.8077 676.364)" fill="#0DB760"/>
<rect x="73.0131" y="1949.45" width="7.30131" height="5.63636" rx="2" fill="#FF0000"/>
<rect x="73.0131" y="1977.64" width="7.30131" height="5.63636" rx="2" fill="#FF0000"/>
<rect x="73.0131" y="1963.55" width="7.30131" height="5.63636" rx="2" fill="#FF0000"/>
<rect x="73.0131" y="1991.73" width="7.30131" height="5.63636" rx="2" fill="#FF0000"/>
<rect x="73.0131" y="2005.82" width="7.30131" height="5.63636" rx="2" fill="#FF0000"/>
<rect width="7.30131" height="5.63636" rx="2" transform="matrix(1 0 0 -1 18.2532 1941)" fill="#FF0000"/>
<rect width="7.30131" height="5.63636" rx="2" transform="matrix(1 0 0 -1 18.2532 1912.82)" fill="#FF0000"/>
<rect width="7.30131" height="5.63636" rx="2" transform="matrix(1 0 0 -1 18.2532 1926.91)" fill="#FF0000"/>
<rect width="7.30131" height="5.63636" rx="2" transform="matrix(1 0 0 -1 18.2532 1898.73)" fill="#FF0000"/>
<rect width="7.30131" height="5.63636" rx="2" transform="matrix(1 0 0 -1 18.2532 1884.64)" fill="#FF0000"/>
<rect x="54.7598" y="1949.45" width="7.30131" height="5.63636" rx="2" fill="#FF0000"/>
<rect x="54.7598" y="1977.64" width="7.30131" height="5.63636" rx="2" fill="#FF0000"/>
<rect x="54.7598" y="1963.55" width="7.30131" height="5.63636" rx="2" fill="#FF0000"/>
<rect x="54.7598" y="1991.73" width="7.30131" height="5.63636" rx="2" fill="#FF0000"/>
<rect x="54.7598" y="2005.82" width="7.30131" height="5.63636" rx="2" fill="#FF0000"/>
<rect width="7.30131" height="5.63636" rx="2" transform="matrix(1 0 0 -1 0 1941)" fill="#FF0000"/>
<rect width="7.30131" height="5.63636" rx="2" transform="matrix(1 0 0 -1 0 1912.82)" fill="#FF0000"/>
<rect width="7.30131" height="5.63636" rx="2" transform="matrix(1 0 0 -1 0 1926.91)" fill="#FF0000"/>
<rect width="7.30131" height="5.63636" rx="2" transform="matrix(1 0 0 -1 0 1898.73)" fill="#FF0000"/>
<rect width="7.30131" height="5.63636" rx="2" transform="matrix(1 0 0 -1 0 1884.64)" fill="#FF0000"/>
<rect x="36.5066" y="1879" width="7.30131" height="5.63636" rx="2" fill="#0DB760"/>
<rect x="36.5067" y="1907.18" width="7.30131" height="5.63636" rx="2" fill="#0DB760"/>
<rect x="36.5067" y="1893.09" width="7.30131" height="5.63636" rx="2" fill="#0DB760"/>
<rect x="36.5067" y="1921.27" width="7.30131" height="5.63636" rx="2" fill="#0DB760"/>
<rect x="36.5067" y="1935.36" width="7.30131" height="5.63636" rx="2" fill="#0DB760"/>
<rect x="73.0131" y="1879" width="7.30131" height="5.63636" rx="2" fill="#0DB760"/>
<rect x="73.0131" y="1907.18" width="7.30131" height="5.63636" rx="2" fill="#0DB760"/>
<rect x="73.0131" y="1893.09" width="7.30131" height="5.63636" rx="2" fill="#0DB760"/>
<rect x="73.0131" y="1921.27" width="7.30131" height="5.63636" rx="2" fill="#0DB760"/>
<rect x="73.0131" y="1935.36" width="7.30131" height="5.63636" rx="2" fill="#0DB760"/>
<rect width="7.30131" height="5.63636" rx="2" transform="matrix(1 0 0 -1 18.2532 2011.45)" fill="#0DB760"/>
<rect width="7.30131" height="5.63636" rx="2" transform="matrix(1 0 0 -1 18.2532 1983.27)" fill="#0DB760"/>
<rect width="7.30131" height="5.63636" rx="2" transform="matrix(1 0 0 -1 18.2532 1997.36)" fill="#0DB760"/>
<rect width="7.30131" height="5.63636" rx="2" transform="matrix(1 0 0 -1 18.2532 1969.18)" fill="#0DB760"/>
<rect width="7.30131" height="5.63636" rx="2" transform="matrix(1 0 0 -1 18.2532 1955.09)" fill="#0DB760"/>
<rect x="54.7598" y="1879" width="7.30131" height="5.63636" rx="2" fill="#0DB760"/>
<rect x="54.7598" y="1907.18" width="7.30131" height="5.63636" rx="2" fill="#0DB760"/>
<rect x="54.7598" y="1893.09" width="7.30131" height="5.63636" rx="2" fill="#0DB760"/>
<rect x="54.7598" y="1921.27" width="7.30131" height="5.63636" rx="2" fill="#0DB760"/>
<rect x="54.7598" y="1935.36" width="7.30131" height="5.63636" rx="2" fill="#0DB760"/>
<rect width="7.30131" height="5.63636" rx="2" transform="matrix(1 0 0 -1 0 2011.45)" fill="#0DB760"/>
<rect width="7.30131" height="5.63636" rx="2" transform="matrix(1 0 0 -1 0 1983.27)" fill="#0DB760"/>
<rect width="7.30131" height="5.63636" rx="2" transform="matrix(1 0 0 -1 0 1997.36)" fill="#0DB760"/>
<rect width="7.30131" height="5.63636" rx="2" transform="matrix(1 0 0 -1 0 1969.18)" fill="#0DB760"/>
<rect width="7.30131" height="5.63636" rx="2" transform="matrix(1 0 0 -1 0 1955.09)" fill="#0DB760"/>
<rect x="36.5066" y="1949.45" width="7.30131" height="5.63636" rx="2" fill="#0DB760"/>
<rect x="36.5067" y="1977.64" width="7.30131" height="5.63636" rx="2" fill="#0DB760"/>
<rect x="36.5067" y="1963.55" width="7.30131" height="5.63636" rx="2" fill="#0DB760"/>
<rect x="36.5067" y="1991.73" width="7.30131" height="5.63636" rx="2" fill="#0DB760"/>
<rect x="36.5067" y="2005.82" width="7.30131" height="5.63636" rx="2" fill="#0DB760"/>
<rect width="7.30131" height="5.63636" rx="2" transform="matrix(-1 0 0 1 1838.99 1370.45)" fill="#FF0000"/>
<rect width="7.30131" height="5.63636" rx="2" transform="matrix(-1 0 0 1 1838.99 1398.64)" fill="#FF0000"/>
<rect width="7.30131" height="5.63636" rx="2" transform="matrix(-1 0 0 1 1838.99 1384.55)" fill="#FF0000"/>
<rect width="7.30131" height="5.63636" rx="2" transform="matrix(-1 0 0 1 1838.99 1412.73)" fill="#FF0000"/>
<rect width="7.30131" height="5.63636" rx="2" transform="matrix(-1 0 0 1 1838.99 1426.82)" fill="#FF0000"/>
<rect x="1893.75" y="1362" width="7.30131" height="5.63636" rx="2" transform="rotate(180 1893.75 1362)" fill="#FF0000"/>
<rect x="1893.75" y="1333.82" width="7.30131" height="5.63636" rx="2" transform="rotate(180 1893.75 1333.82)" fill="#FF0000"/>
<rect x="1893.75" y="1347.91" width="7.30131" height="5.63636" rx="2" transform="rotate(180 1893.75 1347.91)" fill="#FF0000"/>
<rect x="1893.75" y="1319.73" width="7.30131" height="5.63636" rx="2" transform="rotate(180 1893.75 1319.73)" fill="#FF0000"/>
<rect x="1893.75" y="1305.64" width="7.30131" height="5.63636" rx="2" transform="rotate(180 1893.75 1305.64)" fill="#FF0000"/>
<rect width="7.30131" height="5.63636" rx="2" transform="matrix(-1 0 0 1 1857.24 1370.45)" fill="#FF0000"/>
<rect width="7.30131" height="5.63636" rx="2" transform="matrix(-1 0 0 1 1857.24 1398.64)" fill="#FF0000"/>
<rect width="7.30131" height="5.63636" rx="2" transform="matrix(-1 0 0 1 1857.24 1384.55)" fill="#FF0000"/>
<rect width="7.30131" height="5.63636" rx="2" transform="matrix(-1 0 0 1 1857.24 1412.73)" fill="#FF0000"/>
<rect width="7.30131" height="5.63636" rx="2" transform="matrix(-1 0 0 1 1857.24 1426.82)" fill="#FF0000"/>
<rect x="1912" y="1362" width="7.30131" height="5.63636" rx="2" transform="rotate(180 1912 1362)" fill="#FF0000"/>
<rect x="1912" y="1333.82" width="7.30131" height="5.63636" rx="2" transform="rotate(180 1912 1333.82)" fill="#FF0000"/>
<rect x="1912" y="1347.91" width="7.30131" height="5.63636" rx="2" transform="rotate(180 1912 1347.91)" fill="#FF0000"/>
<rect x="1912" y="1319.73" width="7.30131" height="5.63636" rx="2" transform="rotate(180 1912 1319.73)" fill="#FF0000"/>
<rect x="1912" y="1305.64" width="7.30131" height="5.63636" rx="2" transform="rotate(180 1912 1305.64)" fill="#FF0000"/>
<rect width="7.30131" height="5.63636" rx="2" transform="matrix(-1 0 0 1 1875.49 1300)" fill="#0DB760"/>
<rect width="7.30131" height="5.63636" rx="2" transform="matrix(-1 0 0 1 1875.49 1328.18)" fill="#0DB760"/>
<rect width="7.30131" height="5.63636" rx="2" transform="matrix(-1 0 0 1 1875.49 1314.09)" fill="#0DB760"/>
<rect width="7.30131" height="5.63636" rx="2" transform="matrix(-1 0 0 1 1875.49 1342.27)" fill="#0DB760"/>
<rect width="7.30131" height="5.63636" rx="2" transform="matrix(-1 0 0 1 1875.49 1356.36)" fill="#0DB760"/>
<rect width="7.30131" height="5.63636" rx="2" transform="matrix(-1 0 0 1 1838.99 1300)" fill="#0DB760"/>
<rect width="7.30131" height="5.63636" rx="2" transform="matrix(-1 0 0 1 1838.99 1328.18)" fill="#0DB760"/>
<rect width="7.30131" height="5.63636" rx="2" transform="matrix(-1 0 0 1 1838.99 1314.09)" fill="#0DB760"/>
<rect width="7.30131" height="5.63636" rx="2" transform="matrix(-1 0 0 1 1838.99 1342.27)" fill="#0DB760"/>
<rect width="7.30131" height="5.63636" rx="2" transform="matrix(-1 0 0 1 1838.99 1356.36)" fill="#0DB760"/>
<rect x="1893.75" y="1432.45" width="7.30131" height="5.63636" rx="2" transform="rotate(180 1893.75 1432.45)" fill="#0DB760"/>
<rect x="1893.75" y="1404.27" width="7.30131" height="5.63636" rx="2" transform="rotate(180 1893.75 1404.27)" fill="#0DB760"/>
<rect x="1893.75" y="1418.36" width="7.30131" height="5.63636" rx="2" transform="rotate(180 1893.75 1418.36)" fill="#0DB760"/>
<rect x="1893.75" y="1390.18" width="7.30131" height="5.63636" rx="2" transform="rotate(180 1893.75 1390.18)" fill="#0DB760"/>
<rect x="1893.75" y="1376.09" width="7.30131" height="5.63636" rx="2" transform="rotate(180 1893.75 1376.09)" fill="#0DB760"/>
<rect width="7.30131" height="5.63636" rx="2" transform="matrix(-1 0 0 1 1857.24 1300)" fill="#0DB760"/>
<rect width="7.30131" height="5.63636" rx="2" transform="matrix(-1 0 0 1 1857.24 1328.18)" fill="#0DB760"/>
<rect width="7.30131" height="5.63636" rx="2" transform="matrix(-1 0 0 1 1857.24 1314.09)" fill="#0DB760"/>
<rect width="7.30131" height="5.63636" rx="2" transform="matrix(-1 0 0 1 1857.24 1342.27)" fill="#0DB760"/>
<rect width="7.30131" height="5.63636" rx="2" transform="matrix(-1 0 0 1 1857.24 1356.36)" fill="#0DB760"/>
<rect x="1912" y="1432.45" width="7.30131" height="5.63636" rx="2" transform="rotate(180 1912 1432.45)" fill="#0DB760"/>
<rect x="1912" y="1404.27" width="7.30131" height="5.63636" rx="2" transform="rotate(180 1912 1404.27)" fill="#0DB760"/>
<rect x="1912" y="1418.36" width="7.30131" height="5.63636" rx="2" transform="rotate(180 1912 1418.36)" fill="#0DB760"/>
<rect x="1912" y="1390.18" width="7.30131" height="5.63636" rx="2" transform="rotate(180 1912 1390.18)" fill="#0DB760"/>
<rect x="1912" y="1376.09" width="7.30131" height="5.63636" rx="2" transform="rotate(180 1912 1376.09)" fill="#0DB760"/>
<rect width="7.30131" height="5.63636" rx="2" transform="matrix(-1 0 0 1 1875.49 1370.45)" fill="#0DB760"/>
<rect width="7.30131" height="5.63636" rx="2" transform="matrix(-1 0 0 1 1875.49 1398.64)" fill="#0DB760"/>
<rect width="7.30131" height="5.63636" rx="2" transform="matrix(-1 0 0 1 1875.49 1384.55)" fill="#0DB760"/>
<rect width="7.30131" height="5.63636" rx="2" transform="matrix(-1 0 0 1 1875.49 1412.73)" fill="#0DB760"/>
<rect width="7.30131" height="5.63636" rx="2" transform="matrix(-1 0 0 1 1875.49 1426.82)" fill="#0DB760"/>
<rect x="1904.7" y="70.4545" width="7.30131" height="5.63636" rx="2" fill="#FF0000"/>
<rect x="1904.7" y="98.6364" width="7.30131" height="5.63636" rx="2" fill="#FF0000"/>
<rect x="1904.7" y="84.5454" width="7.30131" height="5.63636" rx="2" fill="#FF0000"/>
<rect x="1904.7" y="112.727" width="7.30131" height="5.63636" rx="2" fill="#FF0000"/>
<rect x="1904.7" y="126.818" width="7.30131" height="5.63636" rx="2" fill="#FF0000"/>
<rect width="7.30131" height="5.63636" rx="2" transform="matrix(1 0 0 -1 1849.94 62)" fill="#FF0000"/>
<rect width="7.30131" height="5.63636" rx="2" transform="matrix(1 0 0 -1 1849.94 33.8182)" fill="#FF0000"/>
<rect width="7.30131" height="5.63636" rx="2" transform="matrix(1 0 0 -1 1849.94 47.9091)" fill="#FF0000"/>
<rect width="7.30131" height="5.63636" rx="2" transform="matrix(1 0 0 -1 1849.94 19.7273)" fill="#FF0000"/>
<rect width="7.30131" height="5.63636" rx="2" transform="matrix(1 0 0 -1 1849.94 5.63641)" fill="#FF0000"/>
<rect x="1886.45" y="70.4545" width="7.30131" height="5.63636" rx="2" fill="#FF0000"/>
<rect x="1886.45" y="98.6364" width="7.30131" height="5.63636" rx="2" fill="#FF0000"/>
<rect x="1886.45" y="84.5454" width="7.30131" height="5.63636" rx="2" fill="#FF0000"/>
<rect x="1886.45" y="112.727" width="7.30131" height="5.63636" rx="2" fill="#FF0000"/>
<rect x="1886.45" y="126.818" width="7.30131" height="5.63636" rx="2" fill="#FF0000"/>
<rect width="7.30131" height="5.63636" rx="2" transform="matrix(1 0 0 -1 1831.69 62)" fill="#FF0000"/>
<rect width="7.30131" height="5.63636" rx="2" transform="matrix(1 0 0 -1 1831.69 33.8182)" fill="#FF0000"/>
<rect width="7.30131" height="5.63636" rx="2" transform="matrix(1 0 0 -1 1831.69 47.9091)" fill="#FF0000"/>
<rect width="7.30131" height="5.63636" rx="2" transform="matrix(1 0 0 -1 1831.69 19.7273)" fill="#FF0000"/>
<rect width="7.30131" height="5.63636" rx="2" transform="matrix(1 0 0 -1 1831.69 5.63641)" fill="#FF0000"/>
<rect x="1868.19" width="7.30131" height="5.63636" rx="2" fill="#0DB760"/>
<rect x="1868.19" y="28.1819" width="7.30131" height="5.63636" rx="2" fill="#0DB760"/>
<rect x="1868.19" y="14.0909" width="7.30131" height="5.63636" rx="2" fill="#0DB760"/>
<rect x="1868.19" y="42.2728" width="7.30131" height="5.63636" rx="2" fill="#0DB760"/>
<rect x="1868.19" y="56.3637" width="7.30131" height="5.63636" rx="2" fill="#0DB760"/>
<rect x="1904.7" width="7.30131" height="5.63636" rx="2" fill="#0DB760"/>
<rect x="1904.7" y="28.1819" width="7.30131" height="5.63636" rx="2" fill="#0DB760"/>
<rect x="1904.7" y="14.0909" width="7.30131" height="5.63636" rx="2" fill="#0DB760"/>
<rect x="1904.7" y="42.2728" width="7.30131" height="5.63636" rx="2" fill="#0DB760"/>
<rect x="1904.7" y="56.3637" width="7.30131" height="5.63636" rx="2" fill="#0DB760"/>
<rect width="7.30131" height="5.63636" rx="2" transform="matrix(1 0 0 -1 1849.94 132.455)" fill="#0DB760"/>
<rect width="7.30131" height="5.63636" rx="2" transform="matrix(1 0 0 -1 1849.94 104.273)" fill="#0DB760"/>
<rect width="7.30131" height="5.63636" rx="2" transform="matrix(1 0 0 -1 1849.94 118.364)" fill="#0DB760"/>
<rect width="7.30131" height="5.63636" rx="2" transform="matrix(1 0 0 -1 1849.94 90.1818)" fill="#0DB760"/>
<rect width="7.30131" height="5.63636" rx="2" transform="matrix(1 0 0 -1 1849.94 76.0909)" fill="#0DB760"/>
<rect x="1886.45" width="7.30131" height="5.63636" rx="2" fill="#0DB760"/>
<rect x="1886.45" y="28.1819" width="7.30131" height="5.63636" rx="2" fill="#0DB760"/>
<rect x="1886.45" y="14.0909" width="7.30131" height="5.63636" rx="2" fill="#0DB760"/>
<rect x="1886.45" y="42.2728" width="7.30131" height="5.63636" rx="2" fill="#0DB760"/>
<rect x="1886.45" y="56.3637" width="7.30131" height="5.63636" rx="2" fill="#0DB760"/>
<rect width="7.30131" height="5.63636" rx="2" transform="matrix(1 0 0 -1 1831.69 132.455)" fill="#0DB760"/>
<rect width="7.30131" height="5.63636" rx="2" transform="matrix(1 0 0 -1 1831.69 104.273)" fill="#0DB760"/>
<rect width="7.30131" height="5.63636" rx="2" transform="matrix(1 0 0 -1 1831.69 118.364)" fill="#0DB760"/>
<rect width="7.30131" height="5.63636" rx="2" transform="matrix(1 0 0 -1 1831.69 90.1818)" fill="#0DB760"/>
<rect width="7.30131" height="5.63636" rx="2" transform="matrix(1 0 0 -1 1831.69 76.0909)" fill="#0DB760"/>
<rect x="1868.19" y="70.4545" width="7.30131" height="5.63636" rx="2" fill="#0DB760"/>
<rect x="1868.19" y="98.6364" width="7.30131" height="5.63636" rx="2" fill="#0DB760"/>
<rect x="1868.19" y="84.5454" width="7.30131" height="5.63636" rx="2" fill="#0DB760"/>
<rect x="1868.19" y="112.727" width="7.30131" height="5.63636" rx="2" fill="#0DB760"/>
<rect x="1868.19" y="126.818" width="7.30131" height="5.63636" rx="2" fill="#0DB760"/>
<ellipse cx="1812.25" cy="1981" rx="3.88618" ry="3" fill="#24FF00"/>
<ellipse cx="1783.76" cy="2085" rx="9.06775" ry="7" fill="#FF0000"/>
<ellipse cx="1858.89" cy="2166" rx="3.88618" ry="3" fill="#0047FF"/>
<ellipse cx="1812.25" cy="417" rx="3.88618" ry="3" fill="#24FF00"/>
<ellipse cx="1783.76" cy="521" rx="9.06775" ry="7" fill="#FF0000"/>
<ellipse cx="1858.89" cy="602" rx="3.88618" ry="3" fill="#0047FF"/>
<ellipse rx="3.88618" ry="3" transform="matrix(-1 0 0 1 99.7453 1206)" fill="#24FF00"/>
<ellipse rx="9.06775" ry="7" transform="matrix(-1 0 0 1 128.244 1310)" fill="#FF0000"/>
<ellipse rx="3.88618" ry="3" transform="matrix(-1 0 0 1 53.1111 1391)" fill="#0047FF"/>
</svg>
