<svg width="56" height="56" viewBox="0 0 56 56" fill="none" xmlns="http://www.w3.org/2000/svg">
<path d="M0 12C0 5.37258 5.37258 0 12 0H44C50.6274 0 56 5.37258 56 12V44C56 50.6274 50.6274 56 44 56H12C5.37258 56 0 50.6274 0 44V12Z" fill="#0DB760"/>
<path d="M39.375 21.875V34.125C39.375 34.8212 39.0984 35.4889 38.6062 35.9812C38.1139 36.4734 37.4462 36.75 36.75 36.75H19.25C18.5538 36.75 17.8861 36.4734 17.3938 35.9812C16.9016 35.4889 16.625 34.8212 16.625 34.125V21.875M39.375 21.875C39.375 21.1788 39.0984 20.5111 38.6062 20.0188C38.1139 19.5266 37.4462 19.25 36.75 19.25H19.25C18.5538 19.25 17.8861 19.5266 17.3938 20.0188C16.9016 20.5111 16.625 21.1788 16.625 21.875M39.375 21.875V22.1585C39.375 22.6067 39.2604 23.0474 39.0418 23.4387C38.8233 23.83 38.5083 24.1588 38.1267 24.3938L29.3767 29.778C28.9627 30.033 28.4861 30.168 28 30.168C27.5139 30.168 27.0373 30.033 26.6233 29.778L17.8733 24.395C17.4917 24.16 17.1767 23.8311 16.9582 23.4398C16.7396 23.0486 16.625 22.6078 16.625 22.1597V21.875" stroke="white" stroke-width="1.5" stroke-linecap="round" stroke-linejoin="round"/>
</svg>
