<svg width="24" height="200" viewBox="0 0 24 200" fill="none" xmlns="http://www.w3.org/2000/svg">
<path d="M6 1.40909L17.6364 1.40909L17.6364 8.38636L16.3864 8.38636L16.3864 2.81818L12.4545 2.81818L12.4545 7.86364L11.2045 7.86364L11.2045 2.81818L6 2.81818L6 1.40909ZM5.81818 13.5227C5.81818 12.7348 6.00568 12.0436 6.38068 11.4489C6.75568 10.858 7.2803 10.3958 7.95455 10.0625C8.62879 9.73295 9.41667 9.56818 10.3182 9.56818C11.2273 9.56818 12.0208 9.73295 12.6989 10.0625C13.3769 10.3958 13.9034 10.858 14.2784 11.4489C14.6534 12.0436 14.8409 12.7348 14.8409 13.5227C14.8409 14.3106 14.6534 15 14.2784 15.5909C13.9034 16.1856 13.3769 16.6477 12.6989 16.9773C12.0208 17.3106 11.2273 17.4773 10.3182 17.4773C9.41667 17.4773 8.62879 17.3106 7.95454 16.9773C7.2803 16.6477 6.75568 16.1856 6.38068 15.5909C6.00568 15 5.81818 14.3106 5.81818 13.5227ZM7.02273 13.5227C7.02273 14.1212 7.17614 14.6136 7.48295 15C7.78977 15.3864 8.19318 15.6723 8.69318 15.858C9.19318 16.0436 9.73485 16.1364 10.3182 16.1364C10.9015 16.1364 11.4451 16.0436 11.9489 15.858C12.4527 15.6723 12.8598 15.3864 13.1705 15C13.4811 14.6136 13.6364 14.1212 13.6364 13.5227C13.6364 12.9242 13.4811 12.4318 13.1705 12.0455C12.8598 11.6591 12.4527 11.3731 11.9489 11.1875C11.4451 11.0019 10.9015 10.9091 10.3182 10.9091C9.73485 10.9091 9.19318 11.0019 8.69318 11.1875C8.19318 11.3731 7.78977 11.6591 7.48295 12.0455C7.17614 12.4318 7.02273 12.9242 7.02273 13.5227ZM17.6364 20.8651L6 20.8651L6 19.5241L17.6364 19.5241L17.6364 20.8651ZM17.6364 24.6619L6 24.6619L6 23.321L17.6364 23.321L17.6364 24.6619ZM5.81818 30.6634C5.81818 29.8755 6.00568 29.1842 6.38068 28.5895C6.75568 27.9986 7.2803 27.5365 7.95454 27.2031C8.62879 26.8736 9.41667 26.7088 10.3182 26.7088C11.2273 26.7088 12.0208 26.8736 12.6989 27.2031C13.3769 27.5365 13.9034 27.9986 14.2784 28.5895C14.6534 29.1842 14.8409 29.8755 14.8409 30.6634C14.8409 31.4512 14.6534 32.1406 14.2784 32.7315C13.9034 33.3262 13.3769 33.7884 12.6989 34.1179C12.0208 34.4512 11.2273 34.6179 10.3182 34.6179C9.41667 34.6179 8.62879 34.4512 7.95454 34.1179C7.2803 33.7884 6.75568 33.3262 6.38068 32.7315C6.00568 32.1406 5.81818 31.4512 5.81818 30.6634ZM7.02273 30.6634C7.02273 31.2618 7.17613 31.7543 7.48295 32.1406C7.78977 32.527 8.19318 32.813 8.69318 32.9986C9.19318 33.1842 9.73485 33.277 10.3182 33.277C10.9015 33.277 11.4451 33.1842 11.9489 32.9986C12.4527 32.813 12.8598 32.527 13.1705 32.1406C13.4811 31.7543 13.6364 31.2618 13.6364 30.6634C13.6364 30.0649 13.4811 29.5724 13.1705 29.1861C12.8598 28.7997 12.4527 28.5137 11.9489 28.3281C11.4451 28.1425 10.9015 28.0497 10.3182 28.0497C9.73485 28.0497 9.19318 28.1425 8.69318 28.3281C8.19318 28.5137 7.78977 28.7997 7.48295 29.1861C7.17614 29.5724 7.02273 30.0649 7.02273 30.6634ZM6 38.3452L14.7273 35.6861L14.7273 37.0952L8.04545 38.9815L8.04545 39.0724L14.7273 40.9361L14.7273 42.3679L8.06818 44.2088L8.06818 44.2997L14.7273 46.1861L14.7273 47.5952L6 44.9361L6 43.6179L12.7045 41.7088L12.7045 41.5724L6 39.6634L6 38.3452ZM6 53.8679L14.7273 53.8679L14.7273 55.1634L13.3636 55.1634L13.3636 55.277C13.8295 55.4588 14.1913 55.7524 14.4489 56.1577C14.7102 56.563 14.8409 57.0497 14.8409 57.6179C14.8409 58.1937 14.7102 58.6728 14.4489 59.0554C14.1913 59.4418 13.8295 59.7429 13.3636 59.9588L13.3636 60.0497C13.8144 60.2732 14.1723 60.6084 14.4375 61.0554C14.7064 61.5024 14.8409 62.0384 14.8409 62.6634C14.8409 63.4437 14.5966 64.0819 14.108 64.5781C13.6231 65.0743 12.8674 65.3224 11.8409 65.3224L6 65.3224L6 63.9815L11.8409 63.9815C12.4848 63.9815 12.9451 63.8054 13.2216 63.4531C13.4981 63.1009 13.6364 62.6861 13.6364 62.2088C13.6364 61.5952 13.4508 61.1198 13.0795 60.7827C12.7121 60.4455 12.2462 60.277 11.6818 60.277L6 60.277L6 58.9134L11.9773 58.9134C12.4735 58.9134 12.8731 58.7524 13.1761 58.4304C13.483 58.1084 13.6364 57.6937 13.6364 57.1861C13.6364 56.8376 13.5436 56.5118 13.358 56.2088C13.1723 55.9096 12.9148 55.6671 12.5852 55.4815C12.2595 55.2997 11.8826 55.2088 11.4545 55.2088L6 55.2088L6 53.8679ZM5.81818 71.4332C5.81818 70.5923 6.00378 69.8669 6.375 69.2571C6.75 68.651 7.27272 68.1832 7.94318 67.8537C8.61742 67.5279 9.40151 67.3651 10.2955 67.3651C11.1894 67.3651 11.9773 67.5279 12.6591 67.8537C13.3447 68.1832 13.8788 68.6416 14.2614 69.2287C14.6477 69.8196 14.8409 70.509 14.8409 71.2969C14.8409 71.7514 14.7651 72.2003 14.6136 72.6435C14.4621 73.0866 14.2159 73.4901 13.875 73.8537C13.5379 74.2173 13.0909 74.5071 12.5341 74.723C11.9773 74.9389 11.2917 75.0469 10.4773 75.0469L9.90909 75.0469L9.90909 68.3196L11.0682 68.3196L11.0682 73.6832C11.5606 73.6832 12 73.5848 12.3864 73.3878C12.7727 73.1946 13.0776 72.9181 13.3011 72.5582C13.5246 72.2022 13.6364 71.7817 13.6364 71.2969C13.6364 70.7628 13.5038 70.3007 13.2386 69.9105C12.9773 69.5241 12.6364 69.2268 12.2159 69.0185C11.7955 68.8101 11.3447 68.706 10.8636 68.706L10.0909 68.706C9.43182 68.706 8.8731 68.8196 8.41477 69.0469C7.96022 69.2779 7.61363 69.598 7.375 70.0071C7.14015 70.4162 7.02272 70.8916 7.02272 71.4332C7.02272 71.7855 7.07197 72.1037 7.17045 72.3878C7.27272 72.6757 7.42424 72.9238 7.625 73.1321C7.82954 73.3404 8.08333 73.5014 8.38636 73.6151L8.02272 74.9105C7.58333 74.7741 7.19697 74.545 6.86363 74.223C6.53409 73.901 6.27651 73.5033 6.09091 73.0298C5.90909 72.5563 5.81818 72.0241 5.81818 71.4332ZM5.81818 85.1321C5.81818 84.3442 6.00568 83.6529 6.38068 83.0582C6.75568 82.4673 7.2803 82.0052 7.95454 81.6719C8.62878 81.3423 9.41666 81.1776 10.3182 81.1776C11.2273 81.1776 12.0208 81.3423 12.6989 81.6719C13.3769 82.0052 13.9034 82.4673 14.2784 83.0582C14.6534 83.6529 14.8409 84.3442 14.8409 85.1321C14.8409 85.92 14.6534 86.6094 14.2784 87.2003C13.9034 87.795 13.3769 88.2571 12.6989 88.5866C12.0208 88.92 11.2273 89.0866 10.3182 89.0866C9.41666 89.0866 8.62878 88.92 7.95454 88.5866C7.2803 88.2571 6.75568 87.795 6.38068 87.2003C6.00568 86.6094 5.81818 85.92 5.81818 85.1321ZM7.02272 85.1321C7.02272 85.7306 7.17613 86.223 7.48295 86.6094C7.78977 86.9957 8.19318 87.2817 8.69318 87.4673C9.19318 87.6529 9.73484 87.7457 10.3182 87.7457C10.9015 87.7457 11.4451 87.6529 11.9489 87.4673C12.4526 87.2817 12.8598 86.9957 13.1705 86.6094C13.4811 86.223 13.6364 85.7306 13.6364 85.1321C13.6364 84.5336 13.4811 84.0412 13.1705 83.6548C12.8598 83.2685 12.4526 82.9825 11.9489 82.7969C11.4451 82.6113 10.9015 82.5185 10.3182 82.5185C9.73485 82.5185 9.19318 82.6113 8.69318 82.7969C8.19318 82.9825 7.78977 83.2685 7.48295 83.6548C7.17613 84.0412 7.02272 84.5336 7.02272 85.1321ZM11.25 92.4744L6 92.4744L6 91.1335L14.7273 91.1335L14.7273 92.429L13.3636 92.429L13.3636 92.5426C13.8068 92.7472 14.1629 93.0578 14.4318 93.4744C14.7045 93.8911 14.8409 94.429 14.8409 95.0881C14.8409 95.679 14.7197 96.196 14.4773 96.6392C14.2386 97.0824 13.875 97.4271 13.3864 97.6733C12.9015 97.9195 12.2879 98.0426 11.5455 98.0426L6 98.0426L6 96.7017L11.4545 96.7017C12.1401 96.7017 12.6742 96.5237 13.0568 96.1676C13.4432 95.8116 13.6364 95.3229 13.6364 94.7017C13.6364 94.2737 13.5436 93.8911 13.358 93.554C13.1723 93.2206 12.9015 92.9574 12.5455 92.7642C12.1894 92.571 11.7576 92.4744 11.25 92.4744ZM5.90909 101.47C5.90909 101.19 6.00947 100.949 6.21022 100.749C6.41098 100.548 6.65151 100.447 6.93181 100.447C7.21212 100.447 7.45265 100.548 7.6534 100.749C7.85416 100.949 7.95454 101.19 7.95454 101.47C7.95454 101.75 7.85416 101.991 7.6534 102.192C7.45265 102.393 7.21212 102.493 6.93181 102.493C6.74621 102.493 6.57575 102.446 6.42045 102.351C6.26515 102.26 6.14015 102.137 6.04545 101.982C5.95454 101.83 5.90909 101.66 5.90909 101.47ZM12.3864 101.47C12.3864 101.19 12.4867 100.949 12.6875 100.749C12.8883 100.548 13.1288 100.447 13.4091 100.447C13.6894 100.447 13.9299 100.548 14.1307 100.749C14.3314 100.949 14.4318 101.19 14.4318 101.47C14.4318 101.75 14.3314 101.991 14.1307 102.192C13.9299 102.393 13.6894 102.493 13.4091 102.493C13.2235 102.493 13.053 102.446 12.8977 102.351C12.7424 102.26 12.6174 102.137 12.5227 101.982C12.4318 101.83 12.3864 101.66 12.3864 101.47Z" fill="#0DB760"/>
<line x1="12.25" y1="136.25" x2="12.25" y2="199.75" stroke="#0DB760" stroke-width="0.5" stroke-linecap="round"/>
</svg>
