<svg width="54" height="54" viewBox="0 0 54 54" fill="none" xmlns="http://www.w3.org/2000/svg">
<path d="M33.75 23.625C33.75 25.4152 33.0388 27.1321 31.773 28.398C30.5071 29.6638 28.7902 30.375 27 30.375C25.2098 30.375 23.4929 29.6638 22.227 28.398C20.9612 27.1321 20.25 25.4152 20.25 23.625C20.25 21.8348 20.9612 20.1179 22.227 18.852C23.4929 17.5862 25.2098 16.875 27 16.875C28.7902 16.875 30.5071 17.5862 31.773 18.852C33.0388 20.1179 33.75 21.8348 33.75 23.625V23.625Z" stroke="black" stroke-width="3.5" stroke-linecap="round" stroke-linejoin="round"/>
<path d="M43.875 23.625C43.875 39.6945 27 48.9375 27 48.9375C27 48.9375 10.125 39.6945 10.125 23.625C10.125 19.1495 11.9029 14.8572 15.0676 11.6926C18.2322 8.5279 22.5245 6.75 27 6.75C31.4755 6.75 35.7678 8.5279 38.9324 11.6926C42.0971 14.8572 43.875 19.1495 43.875 23.625V23.625Z" stroke="black" stroke-width="3.5" stroke-linecap="round" stroke-linejoin="round"/>
</svg>
