<svg width="44" height="133" viewBox="0 0 44 133" fill="none" xmlns="http://www.w3.org/2000/svg">
<rect width="5.63636" height="5.63636" rx="2" transform="matrix(1 0 0 -1 14.0909 62)" fill="#FF0000"/>
<rect width="5.63636" height="5.63636" rx="2" transform="matrix(1 0 0 -1 14.0908 33.8182)" fill="#FF0000"/>
<rect width="5.63636" height="5.63636" rx="2" transform="matrix(1 0 0 -1 14.0908 47.9091)" fill="#FF0000"/>
<rect width="5.63636" height="5.63636" rx="2" transform="matrix(1 0 0 -1 14.0908 19.7273)" fill="#FF0000"/>
<rect width="5.63636" height="5.63636" rx="2" transform="matrix(1 0 0 -1 14.0908 5.63641)" fill="#FF0000"/>
<rect x="42.2727" y="70.4545" width="5.63636" height="5.63636" rx="2" fill="#FF0000"/>
<rect x="42.2727" y="98.6364" width="5.63636" height="5.63636" rx="2" fill="#FF0000"/>
<rect x="42.2727" y="84.5454" width="5.63636" height="5.63636" rx="2" fill="#FF0000"/>
<rect x="42.2727" y="112.727" width="5.63636" height="5.63636" rx="2" fill="#FF0000"/>
<rect x="42.2727" y="126.818" width="5.63636" height="5.63636" rx="2" fill="#FF0000"/>
<rect width="5.63636" height="5.63636" rx="2" transform="matrix(1 0 0 -1 0 62)" fill="#FF0000"/>
<rect width="5.63636" height="5.63636" rx="2" transform="matrix(1 0 0 -1 0 33.8182)" fill="#FF0000"/>
<rect width="5.63636" height="5.63636" rx="2" transform="matrix(1 0 0 -1 0 47.9091)" fill="#FF0000"/>
<rect width="5.63636" height="5.63636" rx="2" transform="matrix(1 0 0 -1 0 19.7273)" fill="#FF0000"/>
<rect width="5.63636" height="5.63636" rx="2" transform="matrix(1 0 0 -1 0 5.63641)" fill="#FF0000"/>
<rect x="28.1818" width="5.63636" height="5.63636" rx="2" fill="#0DB760"/>
<rect x="28.1819" y="28.1819" width="5.63636" height="5.63636" rx="2" fill="#0DB760"/>
<rect x="28.1819" y="14.0909" width="5.63636" height="5.63636" rx="2" fill="#0DB760"/>
<rect x="28.1819" y="42.2728" width="5.63636" height="5.63636" rx="2" fill="#0DB760"/>
<rect x="28.1819" y="56.3637" width="5.63636" height="5.63636" rx="2" fill="#0DB760"/>
<rect width="5.63636" height="5.63636" rx="2" transform="matrix(1 0 0 -1 14.0909 132.455)" fill="#0DB760"/>
<rect width="5.63636" height="5.63636" rx="2" transform="matrix(1 0 0 -1 14.0908 104.273)" fill="#0DB760"/>
<rect width="5.63636" height="5.63636" rx="2" transform="matrix(1 0 0 -1 14.0908 118.364)" fill="#0DB760"/>
<rect width="5.63636" height="5.63636" rx="2" transform="matrix(1 0 0 -1 14.0908 90.1818)" fill="#0DB760"/>
<rect width="5.63636" height="5.63636" rx="2" transform="matrix(1 0 0 -1 14.0908 76.0909)" fill="#0DB760"/>
<rect x="42.2727" width="5.63636" height="5.63636" rx="2" fill="#0DB760"/>
<rect x="42.2727" y="28.1819" width="5.63636" height="5.63636" rx="2" fill="#0DB760"/>
<rect x="42.2727" y="14.0909" width="5.63636" height="5.63636" rx="2" fill="#0DB760"/>
<rect x="42.2727" y="42.2728" width="5.63636" height="5.63636" rx="2" fill="#0DB760"/>
<rect x="42.2727" y="56.3637" width="5.63636" height="5.63636" rx="2" fill="#0DB760"/>
<rect width="5.63636" height="5.63636" rx="2" transform="matrix(1 0 0 -1 0 132.455)" fill="#0DB760"/>
<rect width="5.63636" height="5.63636" rx="2" transform="matrix(1 0 0 -1 0 104.273)" fill="#0DB760"/>
<rect width="5.63636" height="5.63636" rx="2" transform="matrix(1 0 0 -1 0 118.364)" fill="#0DB760"/>
<rect width="5.63636" height="5.63636" rx="2" transform="matrix(1 0 0 -1 0 90.1818)" fill="#0DB760"/>
<rect width="5.63636" height="5.63636" rx="2" transform="matrix(1 0 0 -1 0 76.0909)" fill="#0DB760"/>
<rect x="28.1818" y="70.4545" width="5.63636" height="5.63636" rx="2" fill="#0DB760"/>
<rect x="28.1819" y="98.6364" width="5.63636" height="5.63636" rx="2" fill="#0DB760"/>
<rect x="28.1819" y="84.5454" width="5.63636" height="5.63636" rx="2" fill="#0DB760"/>
<rect x="28.1819" y="112.727" width="5.63636" height="5.63636" rx="2" fill="#0DB760"/>
<rect x="28.1819" y="126.818" width="5.63636" height="5.63636" rx="2" fill="#0DB760"/>
</svg>
