<svg width="54" height="54" viewBox="0 0 54 54" fill="none" xmlns="http://www.w3.org/2000/svg">
<path d="M48.9375 15.1875V38.8125C48.9375 40.1552 48.4041 41.4428 47.4547 42.3922C46.5053 43.3416 45.2177 43.875 43.875 43.875H10.125C8.78234 43.875 7.49467 43.3416 6.54527 42.3922C5.59587 41.4428 5.0625 40.1552 5.0625 38.8125V15.1875M48.9375 15.1875C48.9375 13.8448 48.4041 12.5572 47.4547 11.6078C46.5053 10.6584 45.2177 10.125 43.875 10.125H10.125C8.78234 10.125 7.49467 10.6584 6.54527 11.6078C5.59587 12.5572 5.0625 13.8448 5.0625 15.1875M48.9375 15.1875V15.7343C48.9376 16.5986 48.7164 17.4485 48.295 18.2032C47.8735 18.9578 47.2659 19.592 46.53 20.0453L29.655 30.429C28.8567 30.9207 27.9376 31.1811 27 31.1811C26.0624 31.1811 25.1433 30.9207 24.345 30.429L7.47 20.0475C6.73407 19.5942 6.12646 18.96 5.70503 18.2054C5.2836 17.4508 5.0624 16.6008 5.0625 15.7365V15.1875" stroke="black" stroke-width="3.5" stroke-linecap="round" stroke-linejoin="round"/>
</svg>
