<svg width="56" height="56" viewBox="0 0 56 56" fill="none" xmlns="http://www.w3.org/2000/svg">
<path d="M0 12C0 5.37258 5.37258 0 12 0H44C50.6274 0 56 5.37258 56 12V44C56 50.6274 50.6274 56 44 56H12C5.37258 56 0 50.6274 0 44V12Z" fill="#0DB760"/>
<path d="M31.5 26.25C31.5 27.1783 31.1313 28.0685 30.4749 28.7249C29.8185 29.3813 28.9283 29.75 28 29.75C27.0717 29.75 26.1815 29.3813 25.5251 28.7249C24.8687 28.0685 24.5 27.1783 24.5 26.25C24.5 25.3217 24.8687 24.4315 25.5251 23.7751C26.1815 23.1187 27.0717 22.75 28 22.75C28.9283 22.75 29.8185 23.1187 30.4749 23.7751C31.1313 24.4315 31.5 25.3217 31.5 26.25V26.25Z" stroke="white" stroke-width="1.5" stroke-linecap="round" stroke-linejoin="round"/>
<path d="M36.75 26.25C36.75 34.5823 28 39.375 28 39.375C28 39.375 19.25 34.5823 19.25 26.25C19.25 23.9294 20.1719 21.7038 21.8128 20.0628C23.4538 18.4219 25.6794 17.5 28 17.5C30.3206 17.5 32.5462 18.4219 34.1872 20.0628C35.8281 21.7038 36.75 23.9294 36.75 26.25V26.25Z" stroke="white" stroke-width="1.5" stroke-linecap="round" stroke-linejoin="round"/>
</svg>
